<svg xmlns="http://www.w3.org/2000/svg" width="42" height="37" viewBox="0 0 42 37" fill="none"><g clip-path="url(#clip0_170_5369)"><path fill-rule="evenodd" clip-rule="evenodd" d="M4.83651 31.0107L1.39545 36.7405H3.0446L3.55675 35.9037H7.07618L6.44118 34.7961H4.19155L5.53548 32.3103L5.76678 32.33L8.20343 36.7405H9.79349L6.58902 31.0107H4.83651ZM10.0002 32.7138V35.0569C10.0002 35.9873 10.7534 36.7454 11.6888 36.7403H16.3998V35.6376H11.8756C11.8105 35.6384 11.7459 35.6262 11.6856 35.6018C11.6252 35.5774 11.5704 35.5412 11.5241 35.4954C11.4779 35.4497 11.4412 35.3951 11.4162 35.335C11.3912 35.2749 11.3783 35.2105 11.3785 35.1454V32.6253C11.3778 32.5598 11.3903 32.4949 11.415 32.4343C11.4398 32.3737 11.4764 32.3186 11.5227 32.2723C11.5689 32.226 11.624 32.1894 11.6846 32.1646C11.7452 32.1398 11.8101 32.1274 11.8756 32.1279L16.3996 32.1231V31.0204H11.6888C10.7534 31.0204 10.0002 31.7835 10.0002 32.7138ZM22.72 35.2047C22.718 35.3359 22.665 35.4612 22.5723 35.554C22.4795 35.6468 22.3543 35.6999 22.2231 35.702H19.2497C19.1187 35.7006 18.9936 35.6476 18.9015 35.5545C18.8093 35.4614 18.7576 35.3357 18.7575 35.2047V31.0204H17.3742V35.0571C17.3693 35.9875 18.1322 36.7456 19.0625 36.7405H22.4099C23.3404 36.7454 24.0983 35.9873 24.1031 35.0571V31.0204H22.7198L22.72 35.2047ZM25.4619 28.0817C32.275 26.9939 36.1244 22.8392 36.1244 14.323C36.1244 5.80212 32.275 1.64748 25.4619 0.559624C24.2067 0.357769 22.8482 0.259277 21.3962 0.259277C19.944 0.259277 18.5853 0.357769 17.3301 0.559624C10.5221 1.64748 6.66781 5.80212 6.66781 14.323C6.66781 22.8392 10.5221 26.9939 17.3301 28.0817C18.5853 28.2836 19.944 28.3772 21.3962 28.3772C22.8482 28.3772 24.2067 28.2836 25.4619 28.0817ZM25.4619 1.62778C30.2763 2.66649 34.2194 5.95463 34.2194 14.3232C34.2194 20.6832 31.9403 24.1042 28.7305 25.8372L26.9189 13.6637L25.4619 9.55836L22.5135 1.25394C23.5126 1.30308 24.5071 1.42105 25.4619 1.62778ZM20.8398 1.22915C21.0268 1.22428 21.209 1.2192 21.3962 1.2192C21.5782 1.2192 21.7652 1.22407 21.9522 1.22915L22.1149 11.3744H20.6773L20.8398 1.22915ZM8.57262 14.3232C8.57262 5.95484 12.5157 2.66649 17.3299 1.62778C18.2847 1.42105 19.2792 1.30286 20.2785 1.25372L17.3299 9.55815L15.8728 13.6634L14.0612 25.837C10.8519 24.1042 8.57262 20.6832 8.57262 14.3232ZM17.3299 27.0136C16.2963 26.7872 15.3018 26.462 14.3762 26.0043L17.3299 19.8756L20.5295 13.2349H22.2623L25.4617 19.8756L28.4154 26.0043C27.49 26.462 26.4955 26.787 25.4617 27.0136C24.1523 27.294 22.774 27.4122 21.396 27.4171C20.0175 27.4122 18.6393 27.294 17.3299 27.0136ZM36.9956 32.33L39.4322 36.7405H41.0225L37.8225 31.0107H36.0653L32.6245 36.7405H34.2736L34.7853 35.9037H38.3099L37.6748 34.7961H35.4203L36.7643 32.3103L36.9956 32.33ZM30.7737 31.0204L25.4619 31.0157H25.1914V36.7405H26.5697V32.1231H30.3992C30.6209 32.1231 30.8029 32.3052 30.808 32.5268V33.334C30.8031 33.5555 30.6209 33.7377 30.3992 33.7377H27.0714L27.3718 34.8404L30.3992 34.8453C30.6209 34.8453 30.8029 35.0223 30.808 35.2488V36.7403H32.0975V35.3326C32.093 34.9141 31.7975 34.3827 31.3888 34.2939C31.7975 34.2005 32.1813 33.8459 32.1864 33.4276V32.4332C32.1816 31.6554 31.5514 31.0204 30.7737 31.0204Z" fill="black"></path></g><defs><clipPath id="clip0_170_5369"><rect width="40.1897" height="37" fill="white" transform="translate(0.909546)"></rect></clipPath></defs></svg>