<svg xmlns="http://www.w3.org/2000/svg" width="37" height="37" viewBox="0 0 37 37" fill="none"><g clip-path="url(#clip0_170_6066)"><path d="M18.0991 36.5C22.9071 36.5 27.4272 34.6276 30.827 31.2279C34.2268 27.8281 36.0992 23.3079 36.0992 18.5C36.0992 13.6921 34.2268 9.17194 30.827 5.77214C27.4272 2.37235 22.9071 0.5 18.0991 0.5C8.17389 0.5 0.0991821 8.57471 0.0991821 18.5C0.0991821 23.3079 1.97153 27.8281 5.37133 31.2279C8.77112 34.6276 13.2913 36.5 18.0991 36.5Z" fill="#F2F2F2"></path><path fill-rule="evenodd" clip-rule="evenodd" d="M5.81171 6.21277C2.52956 9.49493 0.721985 13.8587 0.721985 18.5002C0.721985 23.1418 2.52956 27.5055 5.81171 30.7877C9.09387 34.0699 13.4576 35.8775 18.0992 35.8775C27.681 35.8775 35.4763 28.0821 35.4763 18.5002C35.4763 13.8587 33.6688 9.49493 30.3866 6.21277C27.1045 2.93055 22.7407 1.12305 18.0992 1.12305C13.4576 1.12305 9.09387 2.93055 5.81171 6.21277ZM1.43817 18.5001C1.43817 9.29861 8.89767 1.83911 18.0992 1.83911C27.3007 1.83911 34.7602 9.29861 34.7602 18.5001C34.7602 27.7016 27.3007 35.1612 18.0992 35.1612C8.89767 35.1612 1.43817 27.7016 1.43817 18.5001Z" fill="black"></path><path d="M18.0991 29.1424C12.2215 29.1424 7.4566 24.3776 7.4566 18.4999C7.4566 12.6223 12.2215 7.85742 18.0991 7.85742C23.9767 7.85742 28.7416 12.6223 28.7416 18.4999C28.7416 24.3776 23.9768 29.1424 18.0991 29.1424Z" fill="black"></path><path d="M8.1413 18.4998H18.0991V8.54199C12.5996 8.54199 8.1413 13.0004 8.1413 18.4998ZM18.0991 18.4998V28.4577C23.5986 28.4577 28.0569 23.9994 28.0569 18.4998H18.0991Z" fill="#F2F2F2"></path><path d="M10.2781 8.34621C9.92536 8.00333 9.38005 7.89999 8.86811 8.21738C8.96589 7.96397 8.92596 7.70537 8.87403 7.56267C8.65348 7.1605 8.5765 7.11016 8.39473 6.95764C7.80632 6.4639 7.18706 6.88542 6.74416 7.41325L4.60425 9.96342L7.96815 12.7861L10.2248 10.0968C10.7405 9.48232 10.8202 8.8731 10.2781 8.34621ZM18.6565 7.13443L19.8118 4.07239V7.13443H20.6898V2.74902H19.3706L18.1707 5.88891H18.1831L16.9833 2.74902H15.6642V7.13443H16.5421V4.07239L17.6974 7.13443H18.6565ZM30.461 8.9589L28.8079 11.2992L31.3706 10.0826L32.0492 10.9205L28.0156 12.8758L27.2193 11.8844L28.8058 9.56465L28.7964 9.55302L26.1974 10.6225L25.3933 9.63751L28.1445 6.09863L28.823 6.93655L27.1002 9.19028L29.733 8.05995L30.461 8.9589Z" fill="black"></path><path d="M7.21176 8.04411C7.36067 7.8666 7.69719 7.87389 7.91363 8.05545C8.15158 8.25512 8.15216 8.53821 7.99234 8.72857L6.72155 10.243L5.92645 9.57581L7.21176 8.04411ZM9.47277 9.83067L8.13295 11.4274L7.29278 10.7224L8.64344 9.11269C8.79596 8.93092 9.13603 8.87799 9.36539 9.07052C9.62501 9.28825 9.65072 9.61864 9.47277 9.83067Z" fill="#F2F2F2"></path></g><defs><clipPath id="clip0_170_6066"><rect width="36" height="36" fill="white" transform="translate(0.0991821 0.5)"></rect></clipPath></defs></svg>