<svg xmlns="http://www.w3.org/2000/svg" width="37" height="37" viewBox="0 0 37 37" fill="none"><g clip-path="url(#clip0_170_5371)"><path d="M18.0991 36.5C22.9071 36.5 27.4272 34.6276 30.827 31.2279C34.2268 27.8281 36.0992 23.3079 36.0992 18.5C36.0992 13.6921 34.2268 9.17194 30.827 5.77214C27.4272 2.37235 22.9071 0.5 18.0991 0.5C8.17389 0.5 0.0991821 8.57471 0.0991821 18.5C0.0991821 23.3079 1.97153 27.8281 5.37133 31.2279C8.77112 34.6276 13.2913 36.5 18.0991 36.5Z" fill="black"></path><path fill-rule="evenodd" clip-rule="evenodd" d="M5.81171 6.21253C2.52956 9.49468 0.721985 13.8585 0.721985 18.5C0.721985 23.1415 2.52956 27.5053 5.81171 30.7875C9.09387 34.0696 13.4576 35.8772 18.0992 35.8772C27.681 35.8772 35.4763 28.0818 35.4763 18.5C35.4763 13.8584 33.6688 9.49468 30.3866 6.21253C27.1045 2.9303 22.7407 1.1228 18.0992 1.1228C13.4576 1.1228 9.09387 2.9303 5.81171 6.21253ZM1.43817 18.4999C1.43817 9.29837 8.89767 1.83887 18.0992 1.83887C27.3007 1.83887 34.7602 9.29837 34.7602 18.4999C34.7602 27.7014 27.3007 35.1609 18.0992 35.1609C8.89767 35.1609 1.43817 27.7014 1.43817 18.4999Z" fill="white"></path><path d="M18.0991 29.1424C12.2215 29.1424 7.4566 24.3776 7.4566 18.4999C7.4566 12.6223 12.2215 7.85742 18.0991 7.85742C23.9767 7.85742 28.7416 12.6223 28.7416 18.4999C28.7416 24.3776 23.9768 29.1424 18.0991 29.1424Z" fill="white"></path><path d="M8.1413 18.5001H18.0991V8.54224C12.5996 8.54224 8.1413 13.0006 8.1413 18.5001ZM18.0991 18.5001V28.458C23.5986 28.458 28.0569 23.9996 28.0569 18.5001H18.0991Z" fill="black"></path><path d="M10.2781 8.34573C9.92536 8.00284 9.38005 7.8995 8.86811 8.21689C8.96589 7.96349 8.92596 7.70488 8.87403 7.56218C8.65348 7.16001 8.5765 7.10967 8.39473 6.95715C7.80632 6.46341 7.18706 6.88494 6.74416 7.41276L4.60425 9.96294L7.96815 12.7857L10.2248 10.0963C10.7405 9.48183 10.8202 8.87261 10.2781 8.34573ZM18.6565 7.13394L19.8118 4.0719V7.13394H20.6898V2.74854H19.3706L18.1707 5.88842H18.1831L16.9833 2.74854H15.6642V7.13394H16.5421V4.0719L17.6974 7.13394H18.6565ZM30.461 8.95841L28.8079 11.2987L31.3706 10.0821L32.0492 10.92L28.0156 12.8753L27.2193 11.884L28.8058 9.56416L28.7964 9.55253L26.1974 10.6221L25.3933 9.63702L28.1445 6.09814L28.823 6.93606L27.1002 9.18979L29.733 8.05946L30.461 8.95841Z" fill="white"></path><path d="M7.21176 8.04411C7.36067 7.8666 7.69719 7.87389 7.91363 8.05545C8.15158 8.25512 8.15216 8.53821 7.99234 8.72857L6.72155 10.243L5.92645 9.57581L7.21176 8.04411ZM9.47277 9.83067L8.13295 11.4274L7.29278 10.7224L8.64344 9.11269C8.79596 8.93092 9.13603 8.87799 9.36539 9.07052C9.62501 9.28825 9.65072 9.61864 9.47277 9.83067Z" fill="black"></path></g><defs><clipPath id="clip0_170_5371"><rect width="36" height="36" fill="white" transform="translate(0.0991821 0.5)"></rect></clipPath></defs></svg>