<svg xmlns="http://www.w3.org/2000/svg" width="38" height="29" viewBox="0 0 38 29" fill="none"><path fill-rule="evenodd" clip-rule="evenodd" d="M28.7008 23.9705C30.9552 23.9705 32.3039 22.3574 32.3039 20.3674C32.3039 18.3774 30.955 16.7648 28.7008 16.7648H21.3923V23.9706L28.7008 23.9705ZM28.7008 11.4117C30.6845 11.4117 31.8921 9.98315 31.8921 8.22061C31.8921 6.45807 30.6845 5.02931 28.7008 5.02931H21.3923V11.4116L28.7008 11.4117ZM11.0973 16.7642V18.5486H6.56914V9.62743H11.0973V11.4118H15.4216V5.02931H4.52979V7.2946H0.000244141L0.000933306 5.02977V0.5H28.7008C30.2635 0.499948 31.7932 0.950186 33.1068 1.79684C34.4203 2.64349 35.4621 3.85069 36.1074 5.27398C36.7528 6.69727 36.9744 8.27637 36.7456 9.8223C36.5169 11.3682 35.8476 12.8155 34.8178 13.991C35.9911 15.1943 36.7835 16.7169 37.0958 18.3683C37.4081 20.0197 37.2263 21.7266 36.5734 23.2752C35.9205 24.8239 34.8253 26.1456 33.4249 27.0749C32.0246 28.0042 30.3812 28.4999 28.7006 28.4999H0.00116303L0.000473863 23.9706V21.7059H4.52979V23.9707H15.4216V16.7649H11.0973V16.7642Z" fill="black"></path></svg>