<svg xmlns="http://www.w3.org/2000/svg" width="56" height="37" viewBox="0 0 56 37" fill="none"><g clip-path="url(#clip0_170_5361)"><path fill-rule="evenodd" clip-rule="evenodd" d="M7.68004 33.4358H10.0618V36.9975H11.7257V29.0323H10.0629V32.2199H7.68004V29.0323H6.01718V36.9975H7.68004V33.4358ZM55.9096 30.2482H53.6496V36.9975H51.9879V30.2482H49.7312V29.0323H55.9096V30.2482ZM40.9536 29.0323L40.9514 35.7828H44.0455V36.9975H39.2886V29.0323H40.9536ZM21.7551 35.7784C21.6714 35.7784 21.6061 35.7469 21.5811 35.6707L19.829 29.0323H17.8899L19.9019 36.2993C19.9998 36.7789 20.3184 37.0008 20.7698 37.0008H22.3032C22.7535 37.0008 23.046 36.7702 23.1591 36.3102L25.1232 29.0334H23.654L21.928 35.674C21.9041 35.7556 21.8432 35.7784 21.7551 35.7784ZM2.08243 35.1683C2.08243 35.6664 2.23142 35.7795 2.69146 35.7795V35.7806H5.38096V36.9975H1.66263C0.876337 36.9975 0.420654 36.6397 0.420654 35.7523L0.421742 30.2754C0.421742 29.4706 0.816522 29.0312 1.66699 29.0312H5.38096V30.2471H2.69363C2.19553 30.2471 2.0846 30.3765 2.0846 30.8551L2.08243 35.1683ZM14.387 35.1694V33.4358H17.6909V32.2199H14.388V30.8562C14.388 30.395 14.4914 30.2482 14.9971 30.2482H17.7257V29.0323H13.9693C13.1091 29.0323 12.7252 29.4608 12.7252 30.2765V35.7523C12.7252 36.5952 13.1352 36.9975 13.9682 36.9975H18.0716V35.7806H14.996C14.5349 35.7806 14.387 35.6762 14.387 35.1694ZM27.4865 32.991C27.4865 32.6473 27.6833 32.4364 28.0368 32.4364H28.946C29.4267 32.4364 29.5572 32.2982 29.5572 31.8273L29.5528 30.8562C29.5528 30.395 29.4604 30.2482 28.946 30.2482H27.0025V36.9965H25.3407V29.0323H29.9737C30.8253 29.0323 31.2179 29.4445 31.2179 30.2765L31.2189 32.3885C31.2189 33.2814 30.7459 33.6338 29.9759 33.6338L29.6028 33.6359L31.8008 36.9975H29.7431L27.6442 33.4141C27.6344 33.3965 27.6243 33.379 27.614 33.3613C27.5516 33.2532 27.4865 33.1406 27.4865 32.991ZM32.1314 35.7523C32.1314 36.6571 32.6143 36.9975 33.3745 36.9975H37.0406C37.8367 36.9975 38.2847 36.6234 38.2847 35.7523L38.2826 30.2765C38.2826 29.4608 37.8987 29.0323 37.0406 29.0323H33.3777C32.5001 29.0323 32.1336 29.4815 32.1336 30.2765L32.1314 35.7523ZM36.623 35.1682C36.623 35.6837 36.4643 35.7794 36.0129 35.7794H34.4044C33.9248 35.7794 33.7954 35.6468 33.7954 35.1682V30.855C33.7954 30.4385 33.852 30.2471 34.4044 30.2471H36.0129C36.4479 30.2471 36.6219 30.3221 36.6219 30.855L36.623 35.1682Z" fill="white"></path><path d="M46.0303 33.436L46.0292 35.1695C46.0292 35.6763 46.1782 35.7807 46.6393 35.7807H49.7149V36.9977H45.6094C44.7785 36.9977 44.3663 36.5953 44.3663 35.7524L44.3685 30.2766C44.3685 29.461 44.7524 29.0325 45.6127 29.0325H49.3691V30.2484H46.6393C46.1325 30.2484 46.0314 30.3952 46.0314 30.8563V32.2201H49.3332V33.436H46.0303Z" fill="white"></path><path fill-rule="evenodd" clip-rule="evenodd" d="M37.7899 1.02036C37.7899 0.35261 37.431 0.000244141 36.7785 0.000244141H18.909C18.2413 0.000244141 17.8976 0.376536 17.8965 1.01493L17.8954 3.33141C17.8954 3.81863 17.6649 3.99699 17.2364 3.99699L7.00688 4.00025C6.22385 4.00025 5.76708 4.37328 5.52999 4.86376L0.550106 14.5984C0.48594 14.7224 0.447876 14.8659 0.447876 15.0128C0.447876 15.3978 0.6991 15.8959 1.39839 15.8959L17.2364 15.8937C17.7247 15.8937 17.8965 16.1166 17.8965 16.5603L17.8954 18.8746C17.8954 19.5729 18.3 19.8893 18.909 19.8893H36.7785C37.3875 19.8893 37.7932 19.5935 37.7932 18.8812L37.791 16.5658C37.791 16.0927 37.9911 15.9002 38.449 15.9002L48.3827 15.8969C49.0656 15.8969 49.5594 15.7164 49.9031 15.0802L54.8275 5.45756C54.8365 5.44014 54.8452 5.42335 54.8537 5.40707C54.9468 5.22825 55.008 5.1107 55.008 4.88443C55.008 4.23081 54.4447 4.00134 54.0597 4.00134L38.449 4.00351C38.052 4.00351 37.791 3.88497 37.791 3.33684L37.7899 1.02036ZM34.6969 3.76208C34.6969 3.289 34.4761 3.09106 34.0313 3.09106L21.655 3.09324C21.1961 3.09324 20.9905 3.28247 20.9905 3.75556V6.42875C20.9905 6.93229 20.7339 7.09977 20.3184 7.09977L8.30538 7.09651C7.94649 7.09651 7.79749 7.21287 7.70723 7.37601L5.33311 12.0198C5.29287 12.096 5.27112 12.1786 5.27112 12.27C5.27112 12.5799 5.5169 12.8018 5.87145 12.8018H20.3184C20.7622 12.8018 20.9862 12.9769 20.9862 13.4641L20.9873 16.1351C20.9873 16.6528 21.2396 16.7985 21.655 16.7985H34.0313C34.5055 16.7985 34.7013 16.5843 34.7013 16.1416L34.7024 13.4685C34.7024 13.0247 34.8807 12.804 35.3679 12.804H47.1504C47.3375 12.804 47.6007 12.7931 47.7497 12.5234L50.1249 7.87845C50.1654 7.80169 50.1867 7.71622 50.1869 7.6294C50.1869 7.39232 50.0379 7.09433 49.5855 7.09433H35.369C34.909 7.09433 34.6969 6.89205 34.6969 6.4331V3.76208Z" fill="white"></path><path d="M40.2043 19.2814C40.2043 19.1014 40.2758 18.9288 40.4031 18.8016C40.5303 18.6743 40.7029 18.6028 40.8829 18.6028C41.0629 18.6028 41.2355 18.6743 41.3628 18.8016C41.49 18.9288 41.5615 19.1014 41.5615 19.2814C41.5517 19.4548 41.476 19.6178 41.3498 19.737C41.2236 19.8563 41.0565 19.9227 40.8829 19.9227C40.7093 19.9227 40.5423 19.8563 40.4161 19.737C40.2899 19.6178 40.2141 19.4548 40.2043 19.2814ZM41.48 19.2814C41.4793 19.1637 41.4438 19.0488 41.378 18.9512C41.3121 18.8536 41.2188 18.7777 41.1098 18.7331C41.0009 18.6885 40.8811 18.6772 40.7657 18.7006C40.6504 18.7239 40.5445 18.7809 40.4614 18.8644C40.3784 18.9479 40.322 19.0541 40.2992 19.1696C40.2765 19.2851 40.2885 19.4048 40.3337 19.5135C40.3789 19.6222 40.4553 19.7151 40.5532 19.7804C40.6512 19.8458 40.7663 19.8807 40.884 19.8807C40.9625 19.8805 41.0402 19.8649 41.1127 19.8347C41.1851 19.8045 41.2509 19.7603 41.3063 19.7046C41.3616 19.649 41.4054 19.5829 41.4353 19.5103C41.4651 19.4377 41.4803 19.3599 41.48 19.2814ZM41.2233 19.661H41.1124L40.8949 19.3119H40.7252V19.661H40.6328V18.904H40.9634C41.0286 18.904 41.0917 18.9062 41.1483 18.9399C41.2059 18.9726 41.2331 19.0422 41.2331 19.1031C41.2331 19.2531 41.1287 19.3086 40.9928 19.3108L41.2233 19.661ZM40.8666 19.239C40.9732 19.239 41.1385 19.2575 41.1385 19.1031C41.1385 18.9856 41.0363 18.9704 40.9395 18.9704H40.7252V19.239H40.8666Z" fill="white"></path><path d="M54.4261 35.9634C54.4261 35.5882 54.7306 35.2837 55.1069 35.2837C55.4821 35.2837 55.7823 35.5882 55.7823 35.9634C55.7823 36.3386 55.4821 36.642 55.1069 36.642C55.0176 36.6422 54.9292 36.6247 54.8467 36.5907C54.7642 36.5567 54.6892 36.5067 54.6259 36.4437C54.5627 36.3807 54.5125 36.3059 54.4782 36.2234C54.444 36.141 54.4262 36.0527 54.4261 35.9634ZM55.704 35.9634C55.7075 35.8828 55.6946 35.8023 55.6662 35.7268C55.6378 35.6512 55.5944 35.5822 55.5386 35.5239C55.4828 35.4656 55.4158 35.4192 55.3417 35.3874C55.2675 35.3557 55.1876 35.3393 55.1069 35.3392C55.0262 35.3391 54.9463 35.3554 54.8721 35.387C54.7978 35.4186 54.7308 35.4649 54.6749 35.5231C54.619 35.5813 54.5755 35.6503 54.5469 35.7257C54.5184 35.8012 54.5054 35.8817 54.5087 35.9623C54.5152 36.1164 54.5809 36.2621 54.6921 36.3689C54.8034 36.4757 54.9516 36.5354 55.1058 36.5355C55.2601 36.5357 55.4084 36.4762 55.5198 36.3696C55.6313 36.263 55.6972 36.1175 55.704 35.9634ZM55.4451 36.3408H55.3353L55.1178 35.9917H54.947V36.3408H54.8546V35.5839H55.1863C55.2515 35.5839 55.3146 35.586 55.369 35.6197C55.4288 35.6502 55.4549 35.722 55.4549 35.7829C55.4549 35.933 55.3527 35.9884 55.2156 35.9906L55.4451 36.3408ZM55.0906 35.9177C55.1982 35.9177 55.3614 35.9351 55.3614 35.7829C55.3614 35.6654 55.2591 35.6502 55.1634 35.6502H54.947V35.9177H55.0906Z" fill="white"></path></g><defs><clipPath id="clip0_170_5361"><rect width="55.4889" height="37" fill="white" transform="translate(0.420654)"></rect></clipPath></defs></svg>