<svg xmlns="http://www.w3.org/2000/svg" width="27" height="39" viewBox="0 0 27 39" fill="none"><path fill-rule="evenodd" clip-rule="evenodd" d="M12.9721 38.9991C8.7171 38.9991 4.81518 36.9218 2.26676 33.3001C-2.75855 26.158 2.51539 14.3625 2.74208 13.8636C2.9258 13.4594 3.52612 13.5316 3.60747 13.9699C3.76126 14.8015 4.29256 16.7779 5.15293 17.7806C5.10151 14.7925 5.50964 5.77322 11.837 0.116751C12.0555 -0.0784021 12.5434 -0.0722321 12.6046 0.489233C12.7694 2.00841 13.5182 7.07279 16.2396 8.45395C16.5072 8.59014 19.041 11.7859 19.4825 14.7516C19.9265 14.1746 20.5412 12.9299 20.8221 10.3182C20.8639 9.92925 21.3458 9.7702 21.6118 10.0561C21.708 10.1596 31.1506 20.547 24.5663 32.0572C22.0801 36.4045 17.7458 38.9991 12.9718 38.9991H12.9721Z" fill="#FFA725"></path><path fill-rule="evenodd" clip-rule="evenodd" d="M13.6798 35.7816C16.2022 35.7816 18.5152 34.5504 20.0259 32.4035C23.0049 28.1695 19.8785 21.1774 19.7442 20.8817C19.6352 20.642 19.2794 20.6849 19.2311 20.9448C19.14 21.4377 18.8251 22.6093 18.315 23.2036C18.3454 21.4322 18.1036 16.0858 14.3528 12.7326C14.2232 12.6169 13.9341 12.6206 13.8978 12.9533C13.8 13.8539 13.3562 16.8559 11.7429 17.6747C11.5843 17.7554 10.0823 19.65 9.82038 21.408C9.55713 21.0659 9.19264 20.328 9.02628 18.7798C9.00138 18.5492 8.71573 18.4548 8.55828 18.6244C8.50115 18.6859 2.90387 24.8435 6.80693 31.6665C8.28086 34.2435 10.8501 35.7816 13.6803 35.7816H13.6798Z" fill="#FF871E"></path><path fill-rule="evenodd" clip-rule="evenodd" d="M9.85986 33.1274C9.45699 33.1274 9.24767 32.6357 9.53674 32.3471L16.8513 25.0323C17.2775 24.6061 17.9233 25.2537 17.498 25.6787L10.1832 32.9935C10.0939 33.0829 9.97709 33.1274 9.85986 33.1274Z" fill="white"></path><path fill-rule="evenodd" clip-rule="evenodd" d="M11.1965 28.6139C8.66976 28.6139 8.66816 24.77 11.196 24.77C13.7241 24.77 13.7229 28.6139 11.1965 28.6139ZM11.1965 25.6834C10.3041 25.6834 9.84959 26.7698 10.4835 27.4041C11.4056 28.3264 12.8596 26.93 11.9092 25.9789C11.7189 25.7881 11.4659 25.6834 11.1965 25.6834Z" fill="white"></path><path fill-rule="evenodd" clip-rule="evenodd" d="M15.839 33.2555C13.3121 33.2555 13.3109 29.4119 15.839 29.4119C18.3668 29.4119 18.3666 33.2555 15.839 33.2555ZM15.839 30.3252C14.9464 30.3252 14.4923 31.4116 15.1262 32.046C16.0481 32.9685 17.5021 31.5713 16.552 30.6207C16.3616 30.4299 16.1082 30.3252 15.839 30.3252Z" fill="white"></path></svg>