<svg xmlns="http://www.w3.org/2000/svg" width="46" height="37" viewBox="0 0 46 37" fill="none"><path d="M33.141 3.33154C32.1238 7.909 31.7049 10.0332 30.8672 13.3242C30.0594 16.4955 29.4312 19.4574 28.3541 20.8934C27.2771 22.3594 25.8111 22.6586 24.8238 22.7783C24.3152 22.8381 23.9262 22.868 22.8193 22.868C21.7123 22.868 21.3234 22.8381 20.8148 22.7783C19.8275 22.6586 18.3615 22.3594 17.2844 20.8934C16.2074 19.4574 15.5791 16.4955 14.8013 13.3242C13.9635 10.0033 13.5447 7.909 12.5275 3.33154C12.5275 3.33154 11.5103 3.36146 11.0615 3.39138C10.4332 3.4213 9.95453 3.48113 9.44592 3.54097C9.44592 3.54097 10.0443 12.9651 10.3135 16.9742C10.5828 21.1627 11.0914 28.2533 11.5402 33.6086C11.5402 33.6086 12.4078 33.7582 13.8439 33.818C15.3398 33.9078 16.0279 33.9078 16.0279 33.9078C16.6562 31.5442 17.4041 28.2832 18.2717 26.877C18.9898 25.7401 20.0668 25.6205 20.6951 25.5307C21.6525 25.411 22.4902 25.3811 22.8492 25.3811C23.2381 25.3811 24.0459 25.3811 25.0033 25.5307C25.6316 25.6205 26.7086 25.7401 27.4267 26.877C28.2943 28.2832 29.0722 31.5442 29.6705 33.9078C29.6705 33.9078 30.3287 33.9078 31.8246 33.818C33.2607 33.7283 34.1283 33.6086 34.1283 33.6086C34.5771 28.2533 35.0857 21.1926 35.3549 16.9742C35.6242 12.9951 36.2226 3.54097 36.2226 3.54097C35.714 3.48113 35.2053 3.4213 34.607 3.39138C34.1582 3.36146 33.141 3.33154 33.141 3.33154Z" fill="white"></path><path d="M45.0184 8.89631C44.42 2.9127 40.411 1.65615 36.9106 1.05779C35.1454 0.758606 32.004 0.519262 29.9995 0.429508C28.2344 0.309836 24.1057 0.25 22.8491 0.25C21.5926 0.25 17.4639 0.309836 15.6987 0.429508C13.6942 0.519262 10.5528 0.758606 8.78764 1.05779C5.28723 1.65615 1.27821 2.9127 0.679849 8.89631C0.500342 10.5418 0.470424 12.666 0.500342 14.9398C0.560177 18.7393 0.889277 21.2824 1.06878 23.0775C1.18846 24.3041 1.69706 27.9541 2.35526 29.8389C3.2528 32.4418 4.06059 33.1898 5.01796 33.9676C6.75321 35.3738 9.62534 35.8225 10.2237 35.9422C13.4549 36.5107 19.977 36.6303 22.879 36.6303C25.7512 36.6303 32.3032 36.5406 35.5344 35.9422C36.1327 35.8225 39.0048 35.4037 40.7401 33.9676C41.6975 33.1898 42.5053 32.4418 43.4028 29.8389C44.061 27.9541 44.5696 24.2742 44.6893 23.0775C44.8688 21.3123 45.1979 18.7393 45.2577 14.9398C45.2278 12.6361 45.168 10.5119 45.0184 8.89631ZM42.8044 18.9488C42.4454 23.7357 42.0266 26.6078 41.4282 28.6721C40.8897 30.4971 40.2315 31.6939 39.2741 32.5615C37.6585 34.0275 35.4446 34.3266 34.1282 34.5361C31.3159 34.9549 26.5589 35.1045 22.8491 35.1045C19.1094 35.1045 14.3823 34.9549 11.57 34.5361C10.2536 34.3266 8.03968 34.0275 6.42411 32.5615C5.46673 31.6939 4.80853 30.4672 4.27001 28.6721C3.67165 26.6078 3.22288 23.7357 2.89378 18.9488C2.68435 16.0766 2.71427 11.4094 3.04337 8.89631C3.49215 5.12664 5.34706 3.2418 9.32616 2.55369C11.1811 2.22459 13.6942 1.98525 16.0577 1.86557C17.9725 1.7459 21.084 1.68607 22.8491 1.68607C24.5844 1.65615 27.7258 1.7459 29.6106 1.86557C31.9741 1.98525 34.4872 2.22459 36.3421 2.55369C40.3212 3.27172 42.1762 5.15656 42.6548 8.89631C42.9839 11.3795 43.0139 16.0467 42.8044 18.9488Z" fill="white"></path></svg>