<svg xmlns="http://www.w3.org/2000/svg" width="210" height="69" viewBox="0 0 210 69" fill="none"><rect width="210" height="68.3871" rx="12" fill="#191919"></rect><circle cx="36.3226" cy="34.1937" r="20.3226" fill="#FF2E00"></circle><path d="M40.963 42.9952C40.0071 42.93 38.6597 42.5953 37.3444 42.1177C32.7068 40.4331 28.1818 35.9448 27.22 29.667C27.049 28.5493 27.229 27.5283 28.0635 26.697C28.3431 26.4191 28.5919 26.1098 28.8651 25.8254C29.8937 24.7508 31.3967 24.7234 32.4619 25.7555C32.7994 26.0818 33.1427 26.4034 33.4718 26.7401C33.9225 27.1912 34.1835 27.802 34.1999 28.4442C34.2163 29.0864 33.9869 29.7102 33.5599 30.1844C33.3028 30.4741 33.0328 30.7494 32.7615 31.0241C32.4651 31.3242 32.0968 31.4965 31.7014 31.6217C31.2135 31.777 31.1228 31.9845 31.3446 32.4575C32.746 35.4366 34.9397 37.5816 37.9255 38.8926C38.3247 39.0675 38.5092 38.9885 38.67 38.5866C39.0222 37.7052 39.6683 37.0625 40.4108 36.5431C41.251 35.9559 42.4544 36.0864 43.2503 36.7806C43.6866 37.1612 44.1035 37.564 44.4994 37.9877C44.9253 38.4502 45.162 39.0598 45.1614 39.6928C45.1608 40.3259 44.923 40.935 44.4962 41.3967C44.3721 41.5337 44.2442 41.6675 44.1252 41.8084C43.4091 42.6533 42.5007 43.0487 40.963 42.9952Z" fill="white"></path><path d="M68.3239 24.8389V16.1989H69.3919V20.0089H73.9399V16.1989H75.0079V24.8389H73.9399V21.0229H69.3919V24.8389H68.3239ZM79.4511 25.0189C78.8071 25.0189 78.2511 24.8729 77.7831 24.5809C77.3191 24.2889 76.9611 23.8849 76.7091 23.3689C76.4571 22.8529 76.3311 22.2609 76.3311 21.5929C76.3311 20.9129 76.4591 20.3169 76.7151 19.8049C76.9711 19.2929 77.3331 18.8949 77.8011 18.6109C78.2691 18.3229 78.8191 18.1789 79.4511 18.1789C80.0991 18.1789 80.6571 18.3249 81.1251 18.6169C81.5931 18.9049 81.9511 19.3069 82.1991 19.8229C82.4511 20.3349 82.5771 20.9249 82.5771 21.5929C82.5771 22.2689 82.4511 22.8649 82.1991 23.3809C81.9471 23.8929 81.5871 24.2949 81.1191 24.5869C80.6511 24.8749 80.0951 25.0189 79.4511 25.0189ZM79.4511 24.0049C80.1231 24.0049 80.6231 23.7809 80.9511 23.3329C81.2791 22.8849 81.4431 22.3049 81.4431 21.5929C81.4431 20.8609 81.2771 20.2789 80.9451 19.8469C80.6131 19.4109 80.1151 19.1929 79.4511 19.1929C78.9991 19.1929 78.6271 19.2949 78.3351 19.4989C78.0431 19.7029 77.8251 19.9849 77.6811 20.3449C77.5371 20.7049 77.4651 21.1209 77.4651 21.5929C77.4651 22.3209 77.6331 22.9049 77.9691 23.3449C78.3051 23.7849 78.7991 24.0049 79.4511 24.0049ZM87.5161 24.8389C87.1321 24.9149 86.7521 24.9449 86.3761 24.9289C86.0041 24.9169 85.6721 24.8429 85.3801 24.7069C85.0881 24.5669 84.8661 24.3509 84.7141 24.0589C84.5861 23.8029 84.5161 23.5449 84.5041 23.2849C84.4961 23.0209 84.4921 22.7229 84.4921 22.3909V16.5589H85.5601V22.3429C85.5601 22.6069 85.5621 22.8329 85.5661 23.0209C85.5741 23.2089 85.6161 23.3709 85.6921 23.5069C85.8361 23.7629 86.0641 23.9129 86.3761 23.9569C86.6921 24.0009 87.0721 23.9889 87.5161 23.9209V24.8389ZM83.1781 19.2409V18.3589H87.5161V19.2409H83.1781ZM88.9517 24.8389V16.0189H90.0197V24.8389H88.9517ZM91.94 17.2129V16.1089H93.008V17.2129H91.94ZM91.94 24.8389V18.3589H93.008V24.8389H91.94ZM99.4223 24.8389V21.5929C99.4223 21.2849 99.3943 20.9889 99.3383 20.7049C99.2863 20.4209 99.1923 20.1669 99.0563 19.9429C98.9243 19.7149 98.7443 19.5349 98.5163 19.4029C98.2923 19.2709 98.0083 19.2049 97.6643 19.2049C97.3963 19.2049 97.1523 19.2509 96.9323 19.3429C96.7163 19.4309 96.5303 19.5669 96.3743 19.7509C96.2183 19.9349 96.0963 20.1669 96.0083 20.4469C95.9243 20.7229 95.8823 21.0489 95.8823 21.4249L95.1803 21.2089C95.1803 20.5809 95.2923 20.0429 95.5163 19.5949C95.7443 19.1429 96.0623 18.7969 96.4703 18.5569C96.8823 18.3129 97.3663 18.1909 97.9223 18.1909C98.3423 18.1909 98.7003 18.2569 98.9963 18.3889C99.2923 18.5209 99.5383 18.6969 99.7343 18.9169C99.9303 19.1329 100.084 19.3769 100.196 19.6489C100.308 19.9169 100.386 20.1909 100.43 20.4709C100.478 20.7469 100.502 21.0089 100.502 21.2569V24.8389H99.4223ZM94.8023 24.8389V18.3589H95.7623V20.0929H95.8823V24.8389H94.8023ZM104.812 25.0189C104.176 25.0189 103.62 24.8789 103.144 24.5989C102.672 24.3149 102.304 23.9209 102.04 23.4169C101.776 22.9089 101.644 22.3169 101.644 21.6409C101.644 20.9329 101.774 20.3209 102.034 19.8049C102.294 19.2849 102.656 18.8849 103.12 18.6049C103.588 18.3209 104.136 18.1789 104.764 18.1789C105.416 18.1789 105.97 18.3289 106.426 18.6289C106.886 18.9289 107.23 19.3569 107.458 19.9129C107.69 20.4689 107.79 21.1309 107.758 21.8989H106.678V21.5149C106.666 20.7189 106.504 20.1249 106.192 19.7329C105.88 19.3369 105.416 19.1389 104.8 19.1389C104.14 19.1389 103.638 19.3509 103.294 19.7749C102.95 20.1989 102.778 20.8069 102.778 21.5989C102.778 22.3629 102.95 22.9549 103.294 23.3749C103.638 23.7949 104.128 24.0049 104.764 24.0049C105.192 24.0049 105.564 23.9069 105.88 23.7109C106.196 23.5149 106.444 23.2329 106.624 22.8649L107.65 23.2189C107.398 23.7909 107.018 24.2349 106.51 24.5509C106.006 24.8629 105.44 25.0189 104.812 25.0189ZM102.418 21.8989V21.0409H107.206V21.8989H102.418ZM111.496 24.8389V16.1989H114.862C115.378 16.1989 115.818 16.3049 116.182 16.5169C116.55 16.7289 116.83 17.0089 117.022 17.3569C117.218 17.7009 117.316 18.0729 117.316 18.4729C117.316 18.9409 117.196 19.3509 116.956 19.7029C116.716 20.0549 116.392 20.2969 115.984 20.4289L115.972 20.1349C116.528 20.2829 116.96 20.5549 117.268 20.9509C117.576 21.3469 117.73 21.8189 117.73 22.3669C117.73 22.8709 117.626 23.3069 117.418 23.6749C117.214 24.0429 116.918 24.3289 116.53 24.5329C116.146 24.7369 115.69 24.8389 115.162 24.8389H111.496ZM112.576 23.8189H114.958C115.278 23.8189 115.564 23.7609 115.816 23.6449C116.068 23.5249 116.266 23.3569 116.41 23.1409C116.558 22.9249 116.632 22.6649 116.632 22.3609C116.632 22.0689 116.566 21.8069 116.434 21.5749C116.306 21.3429 116.124 21.1589 115.888 21.0229C115.656 20.8829 115.386 20.8129 115.078 20.8129H112.576V23.8189ZM112.576 19.8049H114.85C115.106 19.8049 115.336 19.7509 115.54 19.6429C115.748 19.5309 115.912 19.3749 116.032 19.1749C116.156 18.9749 116.218 18.7409 116.218 18.4729C116.218 18.1009 116.092 17.7969 115.84 17.5609C115.588 17.3249 115.258 17.2069 114.85 17.2069H112.576V19.8049ZM121.685 25.0189C121.041 25.0189 120.485 24.8729 120.017 24.5809C119.553 24.2889 119.195 23.8849 118.943 23.3689C118.691 22.8529 118.565 22.2609 118.565 21.5929C118.565 20.9129 118.693 20.3169 118.949 19.8049C119.205 19.2929 119.567 18.8949 120.035 18.6109C120.503 18.3229 121.053 18.1789 121.685 18.1789C122.333 18.1789 122.891 18.3249 123.359 18.6169C123.827 18.9049 124.185 19.3069 124.433 19.8229C124.685 20.3349 124.811 20.9249 124.811 21.5929C124.811 22.2689 124.685 22.8649 124.433 23.3809C124.181 23.8929 123.821 24.2949 123.353 24.5869C122.885 24.8749 122.329 25.0189 121.685 25.0189ZM121.685 24.0049C122.357 24.0049 122.857 23.7809 123.185 23.3329C123.513 22.8849 123.677 22.3049 123.677 21.5929C123.677 20.8609 123.511 20.2789 123.179 19.8469C122.847 19.4109 122.349 19.1929 121.685 19.1929C121.233 19.1929 120.861 19.2949 120.569 19.4989C120.277 19.7029 120.059 19.9849 119.915 20.3449C119.771 20.7049 119.699 21.1209 119.699 21.5929C119.699 22.3209 119.867 22.9049 120.203 23.3449C120.539 23.7849 121.033 24.0049 121.685 24.0049ZM128.892 25.0189C128.248 25.0189 127.692 24.8729 127.224 24.5809C126.76 24.2889 126.402 23.8849 126.15 23.3689C125.898 22.8529 125.772 22.2609 125.772 21.5929C125.772 20.9129 125.9 20.3169 126.156 19.8049C126.412 19.2929 126.774 18.8949 127.242 18.6109C127.71 18.3229 128.26 18.1789 128.892 18.1789C129.54 18.1789 130.098 18.3249 130.566 18.6169C131.034 18.9049 131.392 19.3069 131.64 19.8229C131.892 20.3349 132.018 20.9249 132.018 21.5929C132.018 22.2689 131.892 22.8649 131.64 23.3809C131.388 23.8929 131.028 24.2949 130.56 24.5869C130.092 24.8749 129.536 25.0189 128.892 25.0189ZM128.892 24.0049C129.564 24.0049 130.064 23.7809 130.392 23.3329C130.72 22.8849 130.884 22.3049 130.884 21.5929C130.884 20.8609 130.718 20.2789 130.386 19.8469C130.054 19.4109 129.556 19.1929 128.892 19.1929C128.44 19.1929 128.068 19.2949 127.776 19.4989C127.484 19.7029 127.266 19.9849 127.122 20.3449C126.978 20.7049 126.906 21.1209 126.906 21.5929C126.906 22.3209 127.074 22.9049 127.41 23.3449C127.746 23.7849 128.24 24.0049 128.892 24.0049ZM133.334 24.8389L133.34 16.1989H134.42V21.4789L137.138 18.3589H138.524L135.662 21.5989L138.86 24.8389H137.366L134.42 21.7189V24.8389H133.334ZM139.577 17.2129V16.1089H140.645V17.2129H139.577ZM139.577 24.8389V18.3589H140.645V24.8389H139.577ZM147.059 24.8389V21.5929C147.059 21.2849 147.031 20.9889 146.975 20.7049C146.923 20.4209 146.829 20.1669 146.693 19.9429C146.561 19.7149 146.381 19.5349 146.153 19.4029C145.929 19.2709 145.645 19.2049 145.301 19.2049C145.033 19.2049 144.789 19.2509 144.569 19.3429C144.353 19.4309 144.167 19.5669 144.011 19.7509C143.855 19.9349 143.733 20.1669 143.645 20.4469C143.561 20.7229 143.519 21.0489 143.519 21.4249L142.817 21.2089C142.817 20.5809 142.929 20.0429 143.153 19.5949C143.381 19.1429 143.699 18.7969 144.107 18.5569C144.519 18.3129 145.003 18.1909 145.559 18.1909C145.979 18.1909 146.337 18.2569 146.633 18.3889C146.929 18.5209 147.175 18.6969 147.371 18.9169C147.567 19.1329 147.721 19.3769 147.833 19.6489C147.945 19.9169 148.023 20.1909 148.067 20.4709C148.115 20.7469 148.139 21.0089 148.139 21.2569V24.8389H147.059ZM142.439 24.8389V18.3589H143.399V20.0929H143.519V24.8389H142.439ZM152.321 27.8989C151.981 27.8989 151.649 27.8469 151.325 27.7429C151.001 27.6389 150.703 27.4809 150.431 27.2689C150.163 27.0609 149.939 26.7969 149.759 26.4769L150.737 25.9609C150.897 26.2769 151.123 26.5069 151.415 26.6509C151.711 26.7949 152.015 26.8669 152.327 26.8669C152.739 26.8669 153.081 26.7909 153.353 26.6389C153.625 26.4909 153.825 26.2689 153.953 25.9729C154.085 25.6769 154.149 25.3089 154.145 24.8689V23.0989H154.271V18.3589H155.219V24.8809C155.219 25.0569 155.213 25.2269 155.201 25.3909C155.193 25.5549 155.173 25.7169 155.141 25.8769C155.057 26.3369 154.891 26.7149 154.643 27.0109C154.395 27.3109 154.075 27.5329 153.683 27.6769C153.291 27.8249 152.837 27.8989 152.321 27.8989ZM152.243 25.0189C151.639 25.0189 151.121 24.8689 150.689 24.5689C150.257 24.2649 149.923 23.8549 149.687 23.3389C149.455 22.8229 149.339 22.2409 149.339 21.5929C149.339 20.9449 149.455 20.3629 149.687 19.8469C149.923 19.3309 150.257 18.9249 150.689 18.6289C151.121 18.3289 151.637 18.1789 152.237 18.1789C152.849 18.1789 153.363 18.3269 153.779 18.6229C154.195 18.9189 154.509 19.3249 154.721 19.8409C154.937 20.3569 155.045 20.9409 155.045 21.5929C155.045 22.2369 154.937 22.8189 154.721 23.3389C154.509 23.8549 154.195 24.2649 153.779 24.5689C153.363 24.8689 152.851 25.0189 152.243 25.0189ZM152.375 24.0409C152.811 24.0409 153.169 23.9369 153.449 23.7289C153.729 23.5169 153.935 23.2269 154.067 22.8589C154.203 22.4869 154.271 22.0649 154.271 21.5929C154.271 21.1129 154.203 20.6909 154.067 20.3269C153.935 19.9589 153.731 19.6729 153.455 19.4689C153.179 19.2609 152.829 19.1569 152.405 19.1569C151.965 19.1569 151.601 19.2649 151.313 19.4809C151.029 19.6969 150.817 19.9889 150.677 20.3569C150.541 20.7249 150.473 21.1369 150.473 21.5929C150.473 22.0529 150.543 22.4689 150.683 22.8409C150.823 23.2089 151.033 23.5009 151.313 23.7169C151.597 23.9329 151.951 24.0409 152.375 24.0409Z" fill="#F2F2F2"></path><path d="M70.6039 50.5488V41.1328L68.4439 42.4528V40.3248L70.6039 39.0288H72.5719V50.5488H70.6039ZM75.4595 45.5408V44.0288H80.2595V45.5408H75.4595ZM86.1063 50.7888C85.3436 50.7888 84.6663 50.6342 84.0743 50.3248C83.4823 50.0155 83.0183 49.5862 82.6823 49.0368C82.3463 48.4875 82.1783 47.8582 82.1783 47.1488C82.1783 46.5142 82.3249 45.9248 82.6183 45.3808C82.9116 44.8368 83.3409 44.4022 83.9063 44.0768L83.8663 44.6928C83.4236 44.3568 83.0796 43.9702 82.8343 43.5328C82.5943 43.0902 82.4743 42.5942 82.4743 42.0448C82.4743 41.3835 82.6289 40.8102 82.9383 40.3248C83.2529 39.8395 83.6823 39.4635 84.2263 39.1968C84.7703 38.9248 85.3969 38.7888 86.1063 38.7888C86.8156 38.7888 87.4423 38.9248 87.9863 39.1968C88.5356 39.4635 88.9649 39.8395 89.2743 40.3248C89.5889 40.8102 89.7463 41.3835 89.7463 42.0448C89.7463 42.5942 89.6289 43.0875 89.3943 43.5248C89.1649 43.9622 88.8156 44.3568 88.3463 44.7088L88.3383 44.0848C88.8929 44.3995 89.3169 44.8315 89.6103 45.3808C89.9089 45.9248 90.0583 46.5142 90.0583 47.1488C90.0583 47.8582 89.8876 48.4875 89.5463 49.0368C89.2103 49.5862 88.7436 50.0155 88.1463 50.3248C87.5543 50.6342 86.8743 50.7888 86.1063 50.7888ZM86.1063 48.9728C86.6716 48.9728 87.1303 48.8182 87.4823 48.5088C87.8396 48.1995 88.0183 47.7462 88.0183 47.1488C88.0183 46.5515 87.8423 46.0982 87.4903 45.7888C87.1383 45.4742 86.6769 45.3168 86.1063 45.3168C85.5409 45.3168 85.0849 45.4742 84.7383 45.7888C84.3916 46.0982 84.2183 46.5515 84.2183 47.1488C84.2183 47.7462 84.3916 48.1995 84.7383 48.5088C85.0849 48.8182 85.5409 48.9728 86.1063 48.9728ZM86.1063 43.4848C86.5809 43.4848 86.9649 43.3675 87.2583 43.1328C87.5569 42.8928 87.7063 42.5302 87.7063 42.0448C87.7063 41.5595 87.5569 41.1995 87.2583 40.9648C86.9649 40.7248 86.5809 40.6048 86.1063 40.6048C85.6369 40.6048 85.2529 40.7248 84.9543 40.9648C84.6609 41.1995 84.5143 41.5595 84.5143 42.0448C84.5143 42.5302 84.6609 42.8928 84.9543 43.1328C85.2529 43.3675 85.6369 43.4848 86.1063 43.4848ZM96.2791 50.7888C95.4631 50.7888 94.7431 50.6155 94.1191 50.2688C93.4951 49.9168 93.0071 49.4288 92.6551 48.8048C92.3085 48.1808 92.1351 47.4608 92.1351 46.6448V42.9328C92.1351 42.1168 92.3085 41.3968 92.6551 40.7728C93.0071 40.1488 93.4951 39.6635 94.1191 39.3168C94.7431 38.9648 95.4631 38.7888 96.2791 38.7888C97.0951 38.7888 97.8125 38.9648 98.4311 39.3168C99.0551 39.6635 99.5431 40.1488 99.8951 40.7728C100.247 41.3968 100.423 42.1168 100.423 42.9328V46.6448C100.423 47.4608 100.247 48.1808 99.8951 48.8048C99.5431 49.4288 99.0551 49.9168 98.4311 50.2688C97.8125 50.6155 97.0951 50.7888 96.2791 50.7888ZM96.2791 48.9568C96.6845 48.9568 97.0525 48.8608 97.3831 48.6688C97.7138 48.4715 97.9751 48.2102 98.1671 47.8848C98.3591 47.5542 98.4551 47.1862 98.4551 46.7808V42.7888C98.4551 42.3782 98.3591 42.0102 98.1671 41.6848C97.9751 41.3542 97.7138 41.0928 97.3831 40.9008C97.0525 40.7035 96.6845 40.6048 96.2791 40.6048C95.8738 40.6048 95.5058 40.7035 95.1751 40.9008C94.8445 41.0928 94.5831 41.3542 94.3911 41.6848C94.1991 42.0102 94.1031 42.3782 94.1031 42.7888V46.7808C94.1031 47.1862 94.1991 47.5542 94.3911 47.8848C94.5831 48.2102 94.8445 48.4715 95.1751 48.6688C95.5058 48.8608 95.8738 48.9568 96.2791 48.9568ZM106.81 50.7888C105.994 50.7888 105.274 50.6155 104.65 50.2688C104.026 49.9168 103.538 49.4288 103.186 48.8048C102.84 48.1808 102.666 47.4608 102.666 46.6448V42.9328C102.666 42.1168 102.84 41.3968 103.186 40.7728C103.538 40.1488 104.026 39.6635 104.65 39.3168C105.274 38.9648 105.994 38.7888 106.81 38.7888C107.626 38.7888 108.344 38.9648 108.962 39.3168C109.586 39.6635 110.074 40.1488 110.426 40.7728C110.778 41.3968 110.954 42.1168 110.954 42.9328V46.6448C110.954 47.4608 110.778 48.1808 110.426 48.8048C110.074 49.4288 109.586 49.9168 108.962 50.2688C108.344 50.6155 107.626 50.7888 106.81 50.7888ZM106.81 48.9568C107.216 48.9568 107.584 48.8608 107.914 48.6688C108.245 48.4715 108.506 48.2102 108.698 47.8848C108.89 47.5542 108.986 47.1862 108.986 46.7808V42.7888C108.986 42.3782 108.89 42.0102 108.698 41.6848C108.506 41.3542 108.245 41.0928 107.914 40.9008C107.584 40.7035 107.216 40.6048 106.81 40.6048C106.405 40.6048 106.037 40.7035 105.706 40.9008C105.376 41.0928 105.114 41.3542 104.922 41.6848C104.73 42.0102 104.634 42.3782 104.634 42.7888V46.7808C104.634 47.1862 104.73 47.5542 104.922 47.8848C105.114 48.2102 105.376 48.4715 105.706 48.6688C106.037 48.8608 106.405 48.9568 106.81 48.9568ZM113.038 45.5408V44.0288H117.838V45.5408H113.038ZM119.596 50.5328V48.8528L124.524 44.4608C124.908 44.1195 125.175 43.7968 125.324 43.4928C125.474 43.1888 125.548 42.8955 125.548 42.6128C125.548 42.2288 125.466 41.8875 125.3 41.5888C125.135 41.2848 124.906 41.0448 124.612 40.8688C124.324 40.6928 123.991 40.6048 123.612 40.6048C123.212 40.6048 122.858 40.6982 122.548 40.8848C122.244 41.0662 122.007 41.3088 121.836 41.6128C121.666 41.9168 121.586 42.2448 121.596 42.5968H119.612C119.612 41.8288 119.783 41.1595 120.124 40.5888C120.471 40.0182 120.946 39.5755 121.548 39.2608C122.156 38.9462 122.858 38.7888 123.652 38.7888C124.388 38.7888 125.05 38.9542 125.636 39.2848C126.223 39.6102 126.684 40.0635 127.02 40.6448C127.356 41.2208 127.524 41.8848 127.524 42.6368C127.524 43.1862 127.45 43.6475 127.3 44.0208C127.151 44.3942 126.927 44.7382 126.628 45.0528C126.335 45.3675 125.97 45.7168 125.532 46.1008L122.036 49.1968L121.86 48.7168H127.524V50.5328H119.596ZM129.128 50.5328V48.8528L134.056 44.4608C134.44 44.1195 134.706 43.7968 134.856 43.4928C135.005 43.1888 135.08 42.8955 135.08 42.6128C135.08 42.2288 134.997 41.8875 134.832 41.5888C134.666 41.2848 134.437 41.0448 134.144 40.8688C133.856 40.6928 133.522 40.6048 133.144 40.6048C132.744 40.6048 132.389 40.6982 132.08 40.8848C131.776 41.0662 131.538 41.3088 131.368 41.6128C131.197 41.9168 131.117 42.2448 131.128 42.5968H129.144C129.144 41.8288 129.314 41.1595 129.656 40.5888C130.002 40.0182 130.477 39.5755 131.08 39.2608C131.688 38.9462 132.389 38.7888 133.184 38.7888C133.92 38.7888 134.581 38.9542 135.168 39.2848C135.754 39.6102 136.216 40.0635 136.552 40.6448C136.888 41.2208 137.056 41.8848 137.056 42.6368C137.056 43.1862 136.981 43.6475 136.832 44.0208C136.682 44.3942 136.458 44.7382 136.16 45.0528C135.866 45.3675 135.501 45.7168 135.064 46.1008L131.568 49.1968L131.392 48.7168H137.056V50.5328H129.128ZM138.659 50.5328V48.8528L143.587 44.4608C143.971 44.1195 144.238 43.7968 144.387 43.4928C144.536 43.1888 144.611 42.8955 144.611 42.6128C144.611 42.2288 144.528 41.8875 144.363 41.5888C144.198 41.2848 143.968 41.0448 143.675 40.8688C143.387 40.6928 143.054 40.6048 142.675 40.6048C142.275 40.6048 141.92 40.6982 141.611 40.8848C141.307 41.0662 141.07 41.3088 140.899 41.6128C140.728 41.9168 140.648 42.2448 140.659 42.5968H138.675C138.675 41.8288 138.846 41.1595 139.187 40.5888C139.534 40.0182 140.008 39.5755 140.611 39.2608C141.219 38.9462 141.92 38.7888 142.715 38.7888C143.451 38.7888 144.112 38.9542 144.699 39.2848C145.286 39.6102 145.747 40.0635 146.083 40.6448C146.419 41.2208 146.587 41.8848 146.587 42.6368C146.587 43.1862 146.512 43.6475 146.363 44.0208C146.214 44.3942 145.99 44.7382 145.691 45.0528C145.398 45.3675 145.032 45.7168 144.595 46.1008L141.099 49.1968L140.923 48.7168H146.587V50.5328H138.659ZM148.35 45.5408V44.0288H153.15V45.5408H148.35ZM158.997 50.7888C158.234 50.7888 157.557 50.6342 156.965 50.3248C156.373 50.0155 155.909 49.5862 155.573 49.0368C155.237 48.4875 155.069 47.8582 155.069 47.1488C155.069 46.5142 155.216 45.9248 155.509 45.3808C155.802 44.8368 156.232 44.4022 156.797 44.0768L156.757 44.6928C156.314 44.3568 155.97 43.9702 155.725 43.5328C155.485 43.0902 155.365 42.5942 155.365 42.0448C155.365 41.3835 155.52 40.8102 155.829 40.3248C156.144 39.8395 156.573 39.4635 157.117 39.1968C157.661 38.9248 158.288 38.7888 158.997 38.7888C159.706 38.7888 160.333 38.9248 160.877 39.1968C161.426 39.4635 161.856 39.8395 162.165 40.3248C162.48 40.8102 162.637 41.3835 162.637 42.0448C162.637 42.5942 162.52 43.0875 162.285 43.5248C162.056 43.9622 161.706 44.3568 161.237 44.7088L161.229 44.0848C161.784 44.3995 162.208 44.8315 162.501 45.3808C162.8 45.9248 162.949 46.5142 162.949 47.1488C162.949 47.8582 162.778 48.4875 162.437 49.0368C162.101 49.5862 161.634 50.0155 161.037 50.3248C160.445 50.6342 159.765 50.7888 158.997 50.7888ZM158.997 48.9728C159.562 48.9728 160.021 48.8182 160.373 48.5088C160.73 48.1995 160.909 47.7462 160.909 47.1488C160.909 46.5515 160.733 46.0982 160.381 45.7888C160.029 45.4742 159.568 45.3168 158.997 45.3168C158.432 45.3168 157.976 45.4742 157.629 45.7888C157.282 46.0982 157.109 46.5515 157.109 47.1488C157.109 47.7462 157.282 48.1995 157.629 48.5088C157.976 48.8182 158.432 48.9728 158.997 48.9728ZM158.997 43.4848C159.472 43.4848 159.856 43.3675 160.149 43.1328C160.448 42.8928 160.597 42.5302 160.597 42.0448C160.597 41.5595 160.448 41.1995 160.149 40.9648C159.856 40.7248 159.472 40.6048 158.997 40.6048C158.528 40.6048 158.144 40.7248 157.845 40.9648C157.552 41.1995 157.405 41.5595 157.405 42.0448C157.405 42.5302 157.552 42.8928 157.845 43.1328C158.144 43.3675 158.528 43.4848 158.997 43.4848ZM168.794 50.7888C168.031 50.7888 167.354 50.6342 166.762 50.3248C166.17 50.0155 165.706 49.5862 165.37 49.0368C165.034 48.4875 164.866 47.8582 164.866 47.1488C164.866 46.5142 165.012 45.9248 165.306 45.3808C165.599 44.8368 166.028 44.4022 166.594 44.0768L166.554 44.6928C166.111 44.3568 165.767 43.9702 165.522 43.5328C165.282 43.0902 165.162 42.5942 165.162 42.0448C165.162 41.3835 165.316 40.8102 165.626 40.3248C165.94 39.8395 166.37 39.4635 166.914 39.1968C167.458 38.9248 168.084 38.7888 168.794 38.7888C169.503 38.7888 170.13 38.9248 170.674 39.1968C171.223 39.4635 171.652 39.8395 171.962 40.3248C172.276 40.8102 172.434 41.3835 172.434 42.0448C172.434 42.5942 172.316 43.0875 172.082 43.5248C171.852 43.9622 171.503 44.3568 171.034 44.7088L171.026 44.0848C171.58 44.3995 172.004 44.8315 172.298 45.3808C172.596 45.9248 172.746 46.5142 172.746 47.1488C172.746 47.8582 172.575 48.4875 172.234 49.0368C171.898 49.5862 171.431 50.0155 170.834 50.3248C170.242 50.6342 169.562 50.7888 168.794 50.7888ZM168.794 48.9728C169.359 48.9728 169.818 48.8182 170.17 48.5088C170.527 48.1995 170.706 47.7462 170.706 47.1488C170.706 46.5515 170.53 46.0982 170.178 45.7888C169.826 45.4742 169.364 45.3168 168.794 45.3168C168.228 45.3168 167.772 45.4742 167.426 45.7888C167.079 46.0982 166.906 46.5515 166.906 47.1488C166.906 47.7462 167.079 48.1995 167.426 48.5088C167.772 48.8182 168.228 48.9728 168.794 48.9728ZM168.794 43.4848C169.268 43.4848 169.652 43.3675 169.946 43.1328C170.244 42.8928 170.394 42.5302 170.394 42.0448C170.394 41.5595 170.244 41.1995 169.946 40.9648C169.652 40.7248 169.268 40.6048 168.794 40.6048C168.324 40.6048 167.94 40.7248 167.642 40.9648C167.348 41.1995 167.202 41.5595 167.202 42.0448C167.202 42.5302 167.348 42.8928 167.642 43.1328C167.94 43.3675 168.324 43.4848 168.794 43.4848ZM178.591 50.7888C177.828 50.7888 177.151 50.6342 176.559 50.3248C175.967 50.0155 175.503 49.5862 175.167 49.0368C174.831 48.4875 174.663 47.8582 174.663 47.1488C174.663 46.5142 174.809 45.9248 175.103 45.3808C175.396 44.8368 175.825 44.4022 176.391 44.0768L176.351 44.6928C175.908 44.3568 175.564 43.9702 175.319 43.5328C175.079 43.0902 174.959 42.5942 174.959 42.0448C174.959 41.3835 175.113 40.8102 175.423 40.3248C175.737 39.8395 176.167 39.4635 176.711 39.1968C177.255 38.9248 177.881 38.7888 178.591 38.7888C179.3 38.7888 179.927 38.9248 180.471 39.1968C181.02 39.4635 181.449 39.8395 181.759 40.3248C182.073 40.8102 182.231 41.3835 182.231 42.0448C182.231 42.5942 182.113 43.0875 181.879 43.5248C181.649 43.9622 181.3 44.3568 180.831 44.7088L180.823 44.0848C181.377 44.3995 181.801 44.8315 182.095 45.3808C182.393 45.9248 182.543 46.5142 182.543 47.1488C182.543 47.8582 182.372 48.4875 182.031 49.0368C181.695 49.5862 181.228 50.0155 180.631 50.3248C180.039 50.6342 179.359 50.7888 178.591 50.7888ZM178.591 48.9728C179.156 48.9728 179.615 48.8182 179.967 48.5088C180.324 48.1995 180.503 47.7462 180.503 47.1488C180.503 46.5515 180.327 46.0982 179.975 45.7888C179.623 45.4742 179.161 45.3168 178.591 45.3168C178.025 45.3168 177.569 45.4742 177.223 45.7888C176.876 46.0982 176.703 46.5515 176.703 47.1488C176.703 47.7462 176.876 48.1995 177.223 48.5088C177.569 48.8182 178.025 48.9728 178.591 48.9728ZM178.591 43.4848C179.065 43.4848 179.449 43.3675 179.743 43.1328C180.041 42.8928 180.191 42.5302 180.191 42.0448C180.191 41.5595 180.041 41.1995 179.743 40.9648C179.449 40.7248 179.065 40.6048 178.591 40.6048C178.121 40.6048 177.737 40.7248 177.439 40.9648C177.145 41.1995 176.999 41.5595 176.999 42.0448C176.999 42.5302 177.145 42.8928 177.439 43.1328C177.737 43.3675 178.121 43.4848 178.591 43.4848ZM188.388 50.7888C187.625 50.7888 186.948 50.6342 186.356 50.3248C185.764 50.0155 185.3 49.5862 184.964 49.0368C184.628 48.4875 184.46 47.8582 184.46 47.1488C184.46 46.5142 184.606 45.9248 184.9 45.3808C185.193 44.8368 185.622 44.4022 186.188 44.0768L186.148 44.6928C185.705 44.3568 185.361 43.9702 185.116 43.5328C184.876 43.0902 184.756 42.5942 184.756 42.0448C184.756 41.3835 184.91 40.8102 185.22 40.3248C185.534 39.8395 185.964 39.4635 186.508 39.1968C187.052 38.9248 187.678 38.7888 188.388 38.7888C189.097 38.7888 189.724 38.9248 190.268 39.1968C190.817 39.4635 191.246 39.8395 191.556 40.3248C191.87 40.8102 192.028 41.3835 192.028 42.0448C192.028 42.5942 191.91 43.0875 191.676 43.5248C191.446 43.9622 191.097 44.3568 190.628 44.7088L190.62 44.0848C191.174 44.3995 191.598 44.8315 191.892 45.3808C192.19 45.9248 192.34 46.5142 192.34 47.1488C192.34 47.8582 192.169 48.4875 191.828 49.0368C191.492 49.5862 191.025 50.0155 190.428 50.3248C189.836 50.6342 189.156 50.7888 188.388 50.7888ZM188.388 48.9728C188.953 48.9728 189.412 48.8182 189.764 48.5088C190.121 48.1995 190.3 47.7462 190.3 47.1488C190.3 46.5515 190.124 46.0982 189.772 45.7888C189.42 45.4742 188.958 45.3168 188.388 45.3168C187.822 45.3168 187.366 45.4742 187.02 45.7888C186.673 46.0982 186.5 46.5515 186.5 47.1488C186.5 47.7462 186.673 48.1995 187.02 48.5088C187.366 48.8182 187.822 48.9728 188.388 48.9728ZM188.388 43.4848C188.862 43.4848 189.246 43.3675 189.54 43.1328C189.838 42.8928 189.988 42.5302 189.988 42.0448C189.988 41.5595 189.838 41.1995 189.54 40.9648C189.246 40.7248 188.862 40.6048 188.388 40.6048C187.918 40.6048 187.534 40.7248 187.236 40.9648C186.942 41.1995 186.796 41.5595 186.796 42.0448C186.796 42.5302 186.942 42.8928 187.236 43.1328C187.534 43.3675 187.918 43.4848 188.388 43.4848Z" fill="#F2F2F2"></path></svg>