<svg xmlns="http://www.w3.org/2000/svg" width="210" height="69" viewBox="0 0 210 69" fill="none"><rect width="210" height="68.3871" rx="12" fill="white"></rect><circle cx="36.3226" cy="34.1934" r="20.3226" fill="#FF2E00"></circle><path d="M40.963 42.9952C40.0071 42.93 38.6597 42.5953 37.3444 42.1177C32.7068 40.4331 28.1818 35.9448 27.22 29.667C27.049 28.5493 27.229 27.5283 28.0635 26.697C28.3431 26.4191 28.5919 26.1098 28.8651 25.8254C29.8937 24.7508 31.3967 24.7234 32.4619 25.7555C32.7994 26.0818 33.1427 26.4034 33.4718 26.7401C33.9225 27.1912 34.1835 27.802 34.1999 28.4442C34.2163 29.0864 33.9869 29.7102 33.5599 30.1844C33.3028 30.4741 33.0328 30.7494 32.7615 31.0241C32.4651 31.3242 32.0968 31.4965 31.7014 31.6217C31.2135 31.777 31.1228 31.9845 31.3446 32.4575C32.746 35.4366 34.9397 37.5816 37.9255 38.8926C38.3247 39.0675 38.5092 38.9885 38.67 38.5866C39.0222 37.7052 39.6683 37.0625 40.4108 36.5431C41.251 35.9559 42.4544 36.0864 43.2503 36.7806C43.6866 37.1612 44.1035 37.564 44.4994 37.9877C44.9253 38.4502 45.162 39.0598 45.1614 39.6928C45.1608 40.3259 44.923 40.935 44.4962 41.3967C44.3721 41.5337 44.2442 41.6675 44.1252 41.8084C43.4091 42.6533 42.5007 43.0487 40.963 42.9952Z" fill="white"></path><path d="M68.3239 24.8386V16.1986H69.3919V20.0086H73.9399V16.1986H75.0079V24.8386H73.9399V21.0226H69.3919V24.8386H68.3239ZM79.4511 25.0186C78.8071 25.0186 78.2511 24.8726 77.7831 24.5806C77.3191 24.2886 76.9611 23.8846 76.7091 23.3686C76.4571 22.8526 76.3311 22.2606 76.3311 21.5926C76.3311 20.9126 76.4591 20.3166 76.7151 19.8046C76.9711 19.2926 77.3331 18.8946 77.8011 18.6106C78.2691 18.3226 78.8191 18.1786 79.4511 18.1786C80.0991 18.1786 80.6571 18.3246 81.1251 18.6166C81.5931 18.9046 81.9511 19.3066 82.1991 19.8226C82.4511 20.3346 82.5771 20.9246 82.5771 21.5926C82.5771 22.2686 82.4511 22.8646 82.1991 23.3806C81.9471 23.8926 81.5871 24.2946 81.1191 24.5866C80.6511 24.8746 80.0951 25.0186 79.4511 25.0186ZM79.4511 24.0046C80.1231 24.0046 80.6231 23.7806 80.9511 23.3326C81.2791 22.8846 81.4431 22.3046 81.4431 21.5926C81.4431 20.8606 81.2771 20.2786 80.9451 19.8466C80.6131 19.4106 80.1151 19.1926 79.4511 19.1926C78.9991 19.1926 78.6271 19.2946 78.3351 19.4986C78.0431 19.7026 77.8251 19.9846 77.6811 20.3446C77.5371 20.7046 77.4651 21.1206 77.4651 21.5926C77.4651 22.3206 77.6331 22.9046 77.9691 23.3446C78.3051 23.7846 78.7991 24.0046 79.4511 24.0046ZM87.5161 24.8386C87.1321 24.9146 86.7521 24.9446 86.3761 24.9286C86.0041 24.9166 85.6721 24.8426 85.3801 24.7066C85.0881 24.5666 84.8661 24.3506 84.7141 24.0586C84.5861 23.8026 84.5161 23.5446 84.5041 23.2846C84.4961 23.0206 84.4921 22.7226 84.4921 22.3906V16.5586H85.5601V22.3426C85.5601 22.6066 85.5621 22.8326 85.5661 23.0206C85.5741 23.2086 85.6161 23.3706 85.6921 23.5066C85.8361 23.7626 86.0641 23.9126 86.3761 23.9566C86.6921 24.0006 87.0721 23.9886 87.5161 23.9206V24.8386ZM83.1781 19.2406V18.3586H87.5161V19.2406H83.1781ZM88.9517 24.8386V16.0186H90.0197V24.8386H88.9517ZM91.94 17.2126V16.1086H93.008V17.2126H91.94ZM91.94 24.8386V18.3586H93.008V24.8386H91.94ZM99.4223 24.8386V21.5926C99.4223 21.2846 99.3943 20.9886 99.3383 20.7046C99.2863 20.4206 99.1923 20.1666 99.0563 19.9426C98.9243 19.7146 98.7443 19.5346 98.5163 19.4026C98.2923 19.2706 98.0083 19.2046 97.6643 19.2046C97.3963 19.2046 97.1523 19.2506 96.9323 19.3426C96.7163 19.4306 96.5303 19.5666 96.3743 19.7506C96.2183 19.9346 96.0963 20.1666 96.0083 20.4466C95.9243 20.7226 95.8823 21.0486 95.8823 21.4246L95.1803 21.2086C95.1803 20.5806 95.2923 20.0426 95.5163 19.5946C95.7443 19.1426 96.0623 18.7966 96.4703 18.5566C96.8823 18.3126 97.3663 18.1906 97.9223 18.1906C98.3423 18.1906 98.7003 18.2566 98.9963 18.3886C99.2923 18.5206 99.5383 18.6966 99.7343 18.9166C99.9303 19.1326 100.084 19.3766 100.196 19.6486C100.308 19.9166 100.386 20.1906 100.43 20.4706C100.478 20.7466 100.502 21.0086 100.502 21.2566V24.8386H99.4223ZM94.8023 24.8386V18.3586H95.7623V20.0926H95.8823V24.8386H94.8023ZM104.812 25.0186C104.176 25.0186 103.62 24.8786 103.144 24.5986C102.672 24.3146 102.304 23.9206 102.04 23.4166C101.776 22.9086 101.644 22.3166 101.644 21.6406C101.644 20.9326 101.774 20.3206 102.034 19.8046C102.294 19.2846 102.656 18.8846 103.12 18.6046C103.588 18.3206 104.136 18.1786 104.764 18.1786C105.416 18.1786 105.97 18.3286 106.426 18.6286C106.886 18.9286 107.23 19.3566 107.458 19.9126C107.69 20.4686 107.79 21.1306 107.758 21.8986H106.678V21.5146C106.666 20.7186 106.504 20.1246 106.192 19.7326C105.88 19.3366 105.416 19.1386 104.8 19.1386C104.14 19.1386 103.638 19.3506 103.294 19.7746C102.95 20.1986 102.778 20.8066 102.778 21.5986C102.778 22.3626 102.95 22.9546 103.294 23.3746C103.638 23.7946 104.128 24.0046 104.764 24.0046C105.192 24.0046 105.564 23.9066 105.88 23.7106C106.196 23.5146 106.444 23.2326 106.624 22.8646L107.65 23.2186C107.398 23.7906 107.018 24.2346 106.51 24.5506C106.006 24.8626 105.44 25.0186 104.812 25.0186ZM102.418 21.8986V21.0406H107.206V21.8986H102.418ZM111.496 24.8386V16.1986H114.862C115.378 16.1986 115.818 16.3046 116.182 16.5166C116.55 16.7286 116.83 17.0086 117.022 17.3566C117.218 17.7006 117.316 18.0726 117.316 18.4726C117.316 18.9406 117.196 19.3506 116.956 19.7026C116.716 20.0546 116.392 20.2966 115.984 20.4286L115.972 20.1346C116.528 20.2826 116.96 20.5546 117.268 20.9506C117.576 21.3466 117.73 21.8186 117.73 22.3666C117.73 22.8706 117.626 23.3066 117.418 23.6746C117.214 24.0426 116.918 24.3286 116.53 24.5326C116.146 24.7366 115.69 24.8386 115.162 24.8386H111.496ZM112.576 23.8186H114.958C115.278 23.8186 115.564 23.7606 115.816 23.6446C116.068 23.5246 116.266 23.3566 116.41 23.1406C116.558 22.9246 116.632 22.6646 116.632 22.3606C116.632 22.0686 116.566 21.8066 116.434 21.5746C116.306 21.3426 116.124 21.1586 115.888 21.0226C115.656 20.8826 115.386 20.8126 115.078 20.8126H112.576V23.8186ZM112.576 19.8046H114.85C115.106 19.8046 115.336 19.7506 115.54 19.6426C115.748 19.5306 115.912 19.3746 116.032 19.1746C116.156 18.9746 116.218 18.7406 116.218 18.4726C116.218 18.1006 116.092 17.7966 115.84 17.5606C115.588 17.3246 115.258 17.2066 114.85 17.2066H112.576V19.8046ZM121.685 25.0186C121.041 25.0186 120.485 24.8726 120.017 24.5806C119.553 24.2886 119.195 23.8846 118.943 23.3686C118.691 22.8526 118.565 22.2606 118.565 21.5926C118.565 20.9126 118.693 20.3166 118.949 19.8046C119.205 19.2926 119.567 18.8946 120.035 18.6106C120.503 18.3226 121.053 18.1786 121.685 18.1786C122.333 18.1786 122.891 18.3246 123.359 18.6166C123.827 18.9046 124.185 19.3066 124.433 19.8226C124.685 20.3346 124.811 20.9246 124.811 21.5926C124.811 22.2686 124.685 22.8646 124.433 23.3806C124.181 23.8926 123.821 24.2946 123.353 24.5866C122.885 24.8746 122.329 25.0186 121.685 25.0186ZM121.685 24.0046C122.357 24.0046 122.857 23.7806 123.185 23.3326C123.513 22.8846 123.677 22.3046 123.677 21.5926C123.677 20.8606 123.511 20.2786 123.179 19.8466C122.847 19.4106 122.349 19.1926 121.685 19.1926C121.233 19.1926 120.861 19.2946 120.569 19.4986C120.277 19.7026 120.059 19.9846 119.915 20.3446C119.771 20.7046 119.699 21.1206 119.699 21.5926C119.699 22.3206 119.867 22.9046 120.203 23.3446C120.539 23.7846 121.033 24.0046 121.685 24.0046ZM128.892 25.0186C128.248 25.0186 127.692 24.8726 127.224 24.5806C126.76 24.2886 126.402 23.8846 126.15 23.3686C125.898 22.8526 125.772 22.2606 125.772 21.5926C125.772 20.9126 125.9 20.3166 126.156 19.8046C126.412 19.2926 126.774 18.8946 127.242 18.6106C127.71 18.3226 128.26 18.1786 128.892 18.1786C129.54 18.1786 130.098 18.3246 130.566 18.6166C131.034 18.9046 131.392 19.3066 131.64 19.8226C131.892 20.3346 132.018 20.9246 132.018 21.5926C132.018 22.2686 131.892 22.8646 131.64 23.3806C131.388 23.8926 131.028 24.2946 130.56 24.5866C130.092 24.8746 129.536 25.0186 128.892 25.0186ZM128.892 24.0046C129.564 24.0046 130.064 23.7806 130.392 23.3326C130.72 22.8846 130.884 22.3046 130.884 21.5926C130.884 20.8606 130.718 20.2786 130.386 19.8466C130.054 19.4106 129.556 19.1926 128.892 19.1926C128.44 19.1926 128.068 19.2946 127.776 19.4986C127.484 19.7026 127.266 19.9846 127.122 20.3446C126.978 20.7046 126.906 21.1206 126.906 21.5926C126.906 22.3206 127.074 22.9046 127.41 23.3446C127.746 23.7846 128.24 24.0046 128.892 24.0046ZM133.334 24.8386L133.34 16.1986H134.42V21.4786L137.138 18.3586H138.524L135.662 21.5986L138.86 24.8386H137.366L134.42 21.7186V24.8386H133.334ZM139.577 17.2126V16.1086H140.645V17.2126H139.577ZM139.577 24.8386V18.3586H140.645V24.8386H139.577ZM147.059 24.8386V21.5926C147.059 21.2846 147.031 20.9886 146.975 20.7046C146.923 20.4206 146.829 20.1666 146.693 19.9426C146.561 19.7146 146.381 19.5346 146.153 19.4026C145.929 19.2706 145.645 19.2046 145.301 19.2046C145.033 19.2046 144.789 19.2506 144.569 19.3426C144.353 19.4306 144.167 19.5666 144.011 19.7506C143.855 19.9346 143.733 20.1666 143.645 20.4466C143.561 20.7226 143.519 21.0486 143.519 21.4246L142.817 21.2086C142.817 20.5806 142.929 20.0426 143.153 19.5946C143.381 19.1426 143.699 18.7966 144.107 18.5566C144.519 18.3126 145.003 18.1906 145.559 18.1906C145.979 18.1906 146.337 18.2566 146.633 18.3886C146.929 18.5206 147.175 18.6966 147.371 18.9166C147.567 19.1326 147.721 19.3766 147.833 19.6486C147.945 19.9166 148.023 20.1906 148.067 20.4706C148.115 20.7466 148.139 21.0086 148.139 21.2566V24.8386H147.059ZM142.439 24.8386V18.3586H143.399V20.0926H143.519V24.8386H142.439ZM152.321 27.8986C151.981 27.8986 151.649 27.8466 151.325 27.7426C151.001 27.6386 150.703 27.4806 150.431 27.2686C150.163 27.0606 149.939 26.7966 149.759 26.4766L150.737 25.9606C150.897 26.2766 151.123 26.5066 151.415 26.6506C151.711 26.7946 152.015 26.8666 152.327 26.8666C152.739 26.8666 153.081 26.7906 153.353 26.6386C153.625 26.4906 153.825 26.2686 153.953 25.9726C154.085 25.6766 154.149 25.3086 154.145 24.8686V23.0986H154.271V18.3586H155.219V24.8806C155.219 25.0566 155.213 25.2266 155.201 25.3906C155.193 25.5546 155.173 25.7166 155.141 25.8766C155.057 26.3366 154.891 26.7146 154.643 27.0106C154.395 27.3106 154.075 27.5326 153.683 27.6766C153.291 27.8246 152.837 27.8986 152.321 27.8986ZM152.243 25.0186C151.639 25.0186 151.121 24.8686 150.689 24.5686C150.257 24.2646 149.923 23.8546 149.687 23.3386C149.455 22.8226 149.339 22.2406 149.339 21.5926C149.339 20.9446 149.455 20.3626 149.687 19.8466C149.923 19.3306 150.257 18.9246 150.689 18.6286C151.121 18.3286 151.637 18.1786 152.237 18.1786C152.849 18.1786 153.363 18.3266 153.779 18.6226C154.195 18.9186 154.509 19.3246 154.721 19.8406C154.937 20.3566 155.045 20.9406 155.045 21.5926C155.045 22.2366 154.937 22.8186 154.721 23.3386C154.509 23.8546 154.195 24.2646 153.779 24.5686C153.363 24.8686 152.851 25.0186 152.243 25.0186ZM152.375 24.0406C152.811 24.0406 153.169 23.9366 153.449 23.7286C153.729 23.5166 153.935 23.2266 154.067 22.8586C154.203 22.4866 154.271 22.0646 154.271 21.5926C154.271 21.1126 154.203 20.6906 154.067 20.3266C153.935 19.9586 153.731 19.6726 153.455 19.4686C153.179 19.2606 152.829 19.1566 152.405 19.1566C151.965 19.1566 151.601 19.2646 151.313 19.4806C151.029 19.6966 150.817 19.9886 150.677 20.3566C150.541 20.7246 150.473 21.1366 150.473 21.5926C150.473 22.0526 150.543 22.4686 150.683 22.8406C150.823 23.2086 151.033 23.5006 151.313 23.7166C151.597 23.9326 151.951 24.0406 152.375 24.0406Z" fill="black"></path><path d="M70.6039 50.5483V41.1323L68.4439 42.4523V40.3243L70.6039 39.0283H72.5719V50.5483H70.6039ZM75.4595 45.5403V44.0283H80.2595V45.5403H75.4595ZM86.1063 50.7883C85.3436 50.7883 84.6663 50.6337 84.0743 50.3243C83.4823 50.015 83.0183 49.5857 82.6823 49.0363C82.3463 48.487 82.1783 47.8577 82.1783 47.1483C82.1783 46.5137 82.3249 45.9243 82.6183 45.3803C82.9116 44.8363 83.3409 44.4017 83.9063 44.0763L83.8663 44.6923C83.4236 44.3563 83.0796 43.9697 82.8343 43.5323C82.5943 43.0897 82.4743 42.5937 82.4743 42.0443C82.4743 41.383 82.6289 40.8097 82.9383 40.3243C83.2529 39.839 83.6823 39.463 84.2263 39.1963C84.7703 38.9243 85.3969 38.7883 86.1063 38.7883C86.8156 38.7883 87.4423 38.9243 87.9863 39.1963C88.5356 39.463 88.9649 39.839 89.2743 40.3243C89.5889 40.8097 89.7463 41.383 89.7463 42.0443C89.7463 42.5937 89.6289 43.087 89.3943 43.5243C89.1649 43.9617 88.8156 44.3563 88.3463 44.7083L88.3383 44.0843C88.8929 44.399 89.3169 44.831 89.6103 45.3803C89.9089 45.9243 90.0583 46.5137 90.0583 47.1483C90.0583 47.8577 89.8876 48.487 89.5463 49.0363C89.2103 49.5857 88.7436 50.015 88.1463 50.3243C87.5543 50.6337 86.8743 50.7883 86.1063 50.7883ZM86.1063 48.9723C86.6716 48.9723 87.1303 48.8177 87.4823 48.5083C87.8396 48.199 88.0183 47.7457 88.0183 47.1483C88.0183 46.551 87.8423 46.0977 87.4903 45.7883C87.1383 45.4737 86.6769 45.3163 86.1063 45.3163C85.5409 45.3163 85.0849 45.4737 84.7383 45.7883C84.3916 46.0977 84.2183 46.551 84.2183 47.1483C84.2183 47.7457 84.3916 48.199 84.7383 48.5083C85.0849 48.8177 85.5409 48.9723 86.1063 48.9723ZM86.1063 43.4843C86.5809 43.4843 86.9649 43.367 87.2583 43.1323C87.5569 42.8923 87.7063 42.5297 87.7063 42.0443C87.7063 41.559 87.5569 41.199 87.2583 40.9643C86.9649 40.7243 86.5809 40.6043 86.1063 40.6043C85.6369 40.6043 85.2529 40.7243 84.9543 40.9643C84.6609 41.199 84.5143 41.559 84.5143 42.0443C84.5143 42.5297 84.6609 42.8923 84.9543 43.1323C85.2529 43.367 85.6369 43.4843 86.1063 43.4843ZM96.2791 50.7883C95.4631 50.7883 94.7431 50.615 94.1191 50.2683C93.4951 49.9163 93.0071 49.4283 92.6551 48.8043C92.3085 48.1803 92.1351 47.4603 92.1351 46.6443V42.9323C92.1351 42.1163 92.3085 41.3963 92.6551 40.7723C93.0071 40.1483 93.4951 39.663 94.1191 39.3163C94.7431 38.9643 95.4631 38.7883 96.2791 38.7883C97.0951 38.7883 97.8125 38.9643 98.4311 39.3163C99.0551 39.663 99.5431 40.1483 99.8951 40.7723C100.247 41.3963 100.423 42.1163 100.423 42.9323V46.6443C100.423 47.4603 100.247 48.1803 99.8951 48.8043C99.5431 49.4283 99.0551 49.9163 98.4311 50.2683C97.8125 50.615 97.0951 50.7883 96.2791 50.7883ZM96.2791 48.9563C96.6845 48.9563 97.0525 48.8603 97.3831 48.6683C97.7138 48.471 97.9751 48.2097 98.1671 47.8843C98.3591 47.5537 98.4551 47.1857 98.4551 46.7803V42.7883C98.4551 42.3777 98.3591 42.0097 98.1671 41.6843C97.9751 41.3537 97.7138 41.0923 97.3831 40.9003C97.0525 40.703 96.6845 40.6043 96.2791 40.6043C95.8738 40.6043 95.5058 40.703 95.1751 40.9003C94.8445 41.0923 94.5831 41.3537 94.3911 41.6843C94.1991 42.0097 94.1031 42.3777 94.1031 42.7883V46.7803C94.1031 47.1857 94.1991 47.5537 94.3911 47.8843C94.5831 48.2097 94.8445 48.471 95.1751 48.6683C95.5058 48.8603 95.8738 48.9563 96.2791 48.9563ZM106.81 50.7883C105.994 50.7883 105.274 50.615 104.65 50.2683C104.026 49.9163 103.538 49.4283 103.186 48.8043C102.84 48.1803 102.666 47.4603 102.666 46.6443V42.9323C102.666 42.1163 102.84 41.3963 103.186 40.7723C103.538 40.1483 104.026 39.663 104.65 39.3163C105.274 38.9643 105.994 38.7883 106.81 38.7883C107.626 38.7883 108.344 38.9643 108.962 39.3163C109.586 39.663 110.074 40.1483 110.426 40.7723C110.778 41.3963 110.954 42.1163 110.954 42.9323V46.6443C110.954 47.4603 110.778 48.1803 110.426 48.8043C110.074 49.4283 109.586 49.9163 108.962 50.2683C108.344 50.615 107.626 50.7883 106.81 50.7883ZM106.81 48.9563C107.216 48.9563 107.584 48.8603 107.914 48.6683C108.245 48.471 108.506 48.2097 108.698 47.8843C108.89 47.5537 108.986 47.1857 108.986 46.7803V42.7883C108.986 42.3777 108.89 42.0097 108.698 41.6843C108.506 41.3537 108.245 41.0923 107.914 40.9003C107.584 40.703 107.216 40.6043 106.81 40.6043C106.405 40.6043 106.037 40.703 105.706 40.9003C105.376 41.0923 105.114 41.3537 104.922 41.6843C104.73 42.0097 104.634 42.3777 104.634 42.7883V46.7803C104.634 47.1857 104.73 47.5537 104.922 47.8843C105.114 48.2097 105.376 48.471 105.706 48.6683C106.037 48.8603 106.405 48.9563 106.81 48.9563ZM113.038 45.5403V44.0283H117.838V45.5403H113.038ZM119.596 50.5323V48.8523L124.524 44.4603C124.908 44.119 125.175 43.7963 125.324 43.4923C125.474 43.1883 125.548 42.895 125.548 42.6123C125.548 42.2283 125.466 41.887 125.3 41.5883C125.135 41.2843 124.906 41.0443 124.612 40.8683C124.324 40.6923 123.991 40.6043 123.612 40.6043C123.212 40.6043 122.858 40.6977 122.548 40.8843C122.244 41.0657 122.007 41.3083 121.836 41.6123C121.666 41.9163 121.586 42.2443 121.596 42.5963H119.612C119.612 41.8283 119.783 41.159 120.124 40.5883C120.471 40.0177 120.946 39.575 121.548 39.2603C122.156 38.9457 122.858 38.7883 123.652 38.7883C124.388 38.7883 125.05 38.9537 125.636 39.2843C126.223 39.6097 126.684 40.063 127.02 40.6443C127.356 41.2203 127.524 41.8843 127.524 42.6363C127.524 43.1857 127.45 43.647 127.3 44.0203C127.151 44.3937 126.927 44.7377 126.628 45.0523C126.335 45.367 125.97 45.7163 125.532 46.1003L122.036 49.1963L121.86 48.7163H127.524V50.5323H119.596ZM129.128 50.5323V48.8523L134.056 44.4603C134.44 44.119 134.706 43.7963 134.856 43.4923C135.005 43.1883 135.08 42.895 135.08 42.6123C135.08 42.2283 134.997 41.887 134.832 41.5883C134.666 41.2843 134.437 41.0443 134.144 40.8683C133.856 40.6923 133.522 40.6043 133.144 40.6043C132.744 40.6043 132.389 40.6977 132.08 40.8843C131.776 41.0657 131.538 41.3083 131.368 41.6123C131.197 41.9163 131.117 42.2443 131.128 42.5963H129.144C129.144 41.8283 129.314 41.159 129.656 40.5883C130.002 40.0177 130.477 39.575 131.08 39.2603C131.688 38.9457 132.389 38.7883 133.184 38.7883C133.92 38.7883 134.581 38.9537 135.168 39.2843C135.754 39.6097 136.216 40.063 136.552 40.6443C136.888 41.2203 137.056 41.8843 137.056 42.6363C137.056 43.1857 136.981 43.647 136.832 44.0203C136.682 44.3937 136.458 44.7377 136.16 45.0523C135.866 45.367 135.501 45.7163 135.064 46.1003L131.568 49.1963L131.392 48.7163H137.056V50.5323H129.128ZM138.659 50.5323V48.8523L143.587 44.4603C143.971 44.119 144.238 43.7963 144.387 43.4923C144.536 43.1883 144.611 42.895 144.611 42.6123C144.611 42.2283 144.528 41.887 144.363 41.5883C144.198 41.2843 143.968 41.0443 143.675 40.8683C143.387 40.6923 143.054 40.6043 142.675 40.6043C142.275 40.6043 141.92 40.6977 141.611 40.8843C141.307 41.0657 141.07 41.3083 140.899 41.6123C140.728 41.9163 140.648 42.2443 140.659 42.5963H138.675C138.675 41.8283 138.846 41.159 139.187 40.5883C139.534 40.0177 140.008 39.575 140.611 39.2603C141.219 38.9457 141.92 38.7883 142.715 38.7883C143.451 38.7883 144.112 38.9537 144.699 39.2843C145.286 39.6097 145.747 40.063 146.083 40.6443C146.419 41.2203 146.587 41.8843 146.587 42.6363C146.587 43.1857 146.512 43.647 146.363 44.0203C146.214 44.3937 145.99 44.7377 145.691 45.0523C145.398 45.367 145.032 45.7163 144.595 46.1003L141.099 49.1963L140.923 48.7163H146.587V50.5323H138.659ZM148.35 45.5403V44.0283H153.15V45.5403H148.35ZM158.997 50.7883C158.234 50.7883 157.557 50.6337 156.965 50.3243C156.373 50.015 155.909 49.5857 155.573 49.0363C155.237 48.487 155.069 47.8577 155.069 47.1483C155.069 46.5137 155.216 45.9243 155.509 45.3803C155.802 44.8363 156.232 44.4017 156.797 44.0763L156.757 44.6923C156.314 44.3563 155.97 43.9697 155.725 43.5323C155.485 43.0897 155.365 42.5937 155.365 42.0443C155.365 41.383 155.52 40.8097 155.829 40.3243C156.144 39.839 156.573 39.463 157.117 39.1963C157.661 38.9243 158.288 38.7883 158.997 38.7883C159.706 38.7883 160.333 38.9243 160.877 39.1963C161.426 39.463 161.856 39.839 162.165 40.3243C162.48 40.8097 162.637 41.383 162.637 42.0443C162.637 42.5937 162.52 43.087 162.285 43.5243C162.056 43.9617 161.706 44.3563 161.237 44.7083L161.229 44.0843C161.784 44.399 162.208 44.831 162.501 45.3803C162.8 45.9243 162.949 46.5137 162.949 47.1483C162.949 47.8577 162.778 48.487 162.437 49.0363C162.101 49.5857 161.634 50.015 161.037 50.3243C160.445 50.6337 159.765 50.7883 158.997 50.7883ZM158.997 48.9723C159.562 48.9723 160.021 48.8177 160.373 48.5083C160.73 48.199 160.909 47.7457 160.909 47.1483C160.909 46.551 160.733 46.0977 160.381 45.7883C160.029 45.4737 159.568 45.3163 158.997 45.3163C158.432 45.3163 157.976 45.4737 157.629 45.7883C157.282 46.0977 157.109 46.551 157.109 47.1483C157.109 47.7457 157.282 48.199 157.629 48.5083C157.976 48.8177 158.432 48.9723 158.997 48.9723ZM158.997 43.4843C159.472 43.4843 159.856 43.367 160.149 43.1323C160.448 42.8923 160.597 42.5297 160.597 42.0443C160.597 41.559 160.448 41.199 160.149 40.9643C159.856 40.7243 159.472 40.6043 158.997 40.6043C158.528 40.6043 158.144 40.7243 157.845 40.9643C157.552 41.199 157.405 41.559 157.405 42.0443C157.405 42.5297 157.552 42.8923 157.845 43.1323C158.144 43.367 158.528 43.4843 158.997 43.4843ZM168.794 50.7883C168.031 50.7883 167.354 50.6337 166.762 50.3243C166.17 50.015 165.706 49.5857 165.37 49.0363C165.034 48.487 164.866 47.8577 164.866 47.1483C164.866 46.5137 165.012 45.9243 165.306 45.3803C165.599 44.8363 166.028 44.4017 166.594 44.0763L166.554 44.6923C166.111 44.3563 165.767 43.9697 165.522 43.5323C165.282 43.0897 165.162 42.5937 165.162 42.0443C165.162 41.383 165.316 40.8097 165.626 40.3243C165.94 39.839 166.37 39.463 166.914 39.1963C167.458 38.9243 168.084 38.7883 168.794 38.7883C169.503 38.7883 170.13 38.9243 170.674 39.1963C171.223 39.463 171.652 39.839 171.962 40.3243C172.276 40.8097 172.434 41.383 172.434 42.0443C172.434 42.5937 172.316 43.087 172.082 43.5243C171.852 43.9617 171.503 44.3563 171.034 44.7083L171.026 44.0843C171.58 44.399 172.004 44.831 172.298 45.3803C172.596 45.9243 172.746 46.5137 172.746 47.1483C172.746 47.8577 172.575 48.487 172.234 49.0363C171.898 49.5857 171.431 50.015 170.834 50.3243C170.242 50.6337 169.562 50.7883 168.794 50.7883ZM168.794 48.9723C169.359 48.9723 169.818 48.8177 170.17 48.5083C170.527 48.199 170.706 47.7457 170.706 47.1483C170.706 46.551 170.53 46.0977 170.178 45.7883C169.826 45.4737 169.364 45.3163 168.794 45.3163C168.228 45.3163 167.772 45.4737 167.426 45.7883C167.079 46.0977 166.906 46.551 166.906 47.1483C166.906 47.7457 167.079 48.199 167.426 48.5083C167.772 48.8177 168.228 48.9723 168.794 48.9723ZM168.794 43.4843C169.268 43.4843 169.652 43.367 169.946 43.1323C170.244 42.8923 170.394 42.5297 170.394 42.0443C170.394 41.559 170.244 41.199 169.946 40.9643C169.652 40.7243 169.268 40.6043 168.794 40.6043C168.324 40.6043 167.94 40.7243 167.642 40.9643C167.348 41.199 167.202 41.559 167.202 42.0443C167.202 42.5297 167.348 42.8923 167.642 43.1323C167.94 43.367 168.324 43.4843 168.794 43.4843ZM178.591 50.7883C177.828 50.7883 177.151 50.6337 176.559 50.3243C175.967 50.015 175.503 49.5857 175.167 49.0363C174.831 48.487 174.663 47.8577 174.663 47.1483C174.663 46.5137 174.809 45.9243 175.103 45.3803C175.396 44.8363 175.825 44.4017 176.391 44.0763L176.351 44.6923C175.908 44.3563 175.564 43.9697 175.319 43.5323C175.079 43.0897 174.959 42.5937 174.959 42.0443C174.959 41.383 175.113 40.8097 175.423 40.3243C175.737 39.839 176.167 39.463 176.711 39.1963C177.255 38.9243 177.881 38.7883 178.591 38.7883C179.3 38.7883 179.927 38.9243 180.471 39.1963C181.02 39.463 181.449 39.839 181.759 40.3243C182.073 40.8097 182.231 41.383 182.231 42.0443C182.231 42.5937 182.113 43.087 181.879 43.5243C181.649 43.9617 181.3 44.3563 180.831 44.7083L180.823 44.0843C181.377 44.399 181.801 44.831 182.095 45.3803C182.393 45.9243 182.543 46.5137 182.543 47.1483C182.543 47.8577 182.372 48.487 182.031 49.0363C181.695 49.5857 181.228 50.015 180.631 50.3243C180.039 50.6337 179.359 50.7883 178.591 50.7883ZM178.591 48.9723C179.156 48.9723 179.615 48.8177 179.967 48.5083C180.324 48.199 180.503 47.7457 180.503 47.1483C180.503 46.551 180.327 46.0977 179.975 45.7883C179.623 45.4737 179.161 45.3163 178.591 45.3163C178.025 45.3163 177.569 45.4737 177.223 45.7883C176.876 46.0977 176.703 46.551 176.703 47.1483C176.703 47.7457 176.876 48.199 177.223 48.5083C177.569 48.8177 178.025 48.9723 178.591 48.9723ZM178.591 43.4843C179.065 43.4843 179.449 43.367 179.743 43.1323C180.041 42.8923 180.191 42.5297 180.191 42.0443C180.191 41.559 180.041 41.199 179.743 40.9643C179.449 40.7243 179.065 40.6043 178.591 40.6043C178.121 40.6043 177.737 40.7243 177.439 40.9643C177.145 41.199 176.999 41.559 176.999 42.0443C176.999 42.5297 177.145 42.8923 177.439 43.1323C177.737 43.367 178.121 43.4843 178.591 43.4843ZM188.388 50.7883C187.625 50.7883 186.948 50.6337 186.356 50.3243C185.764 50.015 185.3 49.5857 184.964 49.0363C184.628 48.487 184.46 47.8577 184.46 47.1483C184.46 46.5137 184.606 45.9243 184.9 45.3803C185.193 44.8363 185.622 44.4017 186.188 44.0763L186.148 44.6923C185.705 44.3563 185.361 43.9697 185.116 43.5323C184.876 43.0897 184.756 42.5937 184.756 42.0443C184.756 41.383 184.91 40.8097 185.22 40.3243C185.534 39.839 185.964 39.463 186.508 39.1963C187.052 38.9243 187.678 38.7883 188.388 38.7883C189.097 38.7883 189.724 38.9243 190.268 39.1963C190.817 39.463 191.246 39.839 191.556 40.3243C191.87 40.8097 192.028 41.383 192.028 42.0443C192.028 42.5937 191.91 43.087 191.676 43.5243C191.446 43.9617 191.097 44.3563 190.628 44.7083L190.62 44.0843C191.174 44.399 191.598 44.831 191.892 45.3803C192.19 45.9243 192.34 46.5137 192.34 47.1483C192.34 47.8577 192.169 48.487 191.828 49.0363C191.492 49.5857 191.025 50.015 190.428 50.3243C189.836 50.6337 189.156 50.7883 188.388 50.7883ZM188.388 48.9723C188.953 48.9723 189.412 48.8177 189.764 48.5083C190.121 48.199 190.3 47.7457 190.3 47.1483C190.3 46.551 190.124 46.0977 189.772 45.7883C189.42 45.4737 188.958 45.3163 188.388 45.3163C187.822 45.3163 187.366 45.4737 187.02 45.7883C186.673 46.0977 186.5 46.551 186.5 47.1483C186.5 47.7457 186.673 48.199 187.02 48.5083C187.366 48.8177 187.822 48.9723 188.388 48.9723ZM188.388 43.4843C188.862 43.4843 189.246 43.367 189.54 43.1323C189.838 42.8923 189.988 42.5297 189.988 42.0443C189.988 41.559 189.838 41.199 189.54 40.9643C189.246 40.7243 188.862 40.6043 188.388 40.6043C187.918 40.6043 187.534 40.7243 187.236 40.9643C186.942 41.199 186.796 41.559 186.796 42.0443C186.796 42.5297 186.942 42.8923 187.236 43.1323C187.534 43.367 187.918 43.4843 188.388 43.4843Z" fill="black"></path></svg>