<svg xmlns="http://www.w3.org/2000/svg" width="64" height="31" viewBox="0 0 64 31" fill="none"><g clip-path="url(#clip0_170_5354)"><path fill-rule="evenodd" clip-rule="evenodd" d="M15.913 26.6415C15.6938 26.4605 15.3847 25.8659 15.2814 25.6461L11.7766 17.2196H10.7586L7.53727 25.2586C7.39549 25.6205 6.81112 26.6674 6.69956 26.8354C6.59664 26.9905 6.44191 27.2488 6.82839 27.2488H8.09142L9.09978 24.7154H12.7816L13.8385 27.2488H15.8615C16.1577 27.2488 16.1972 26.8762 15.913 26.6415ZM9.61276 23.4773L10.9014 20.1942L12.2673 23.4773H9.61276ZM45.5722 26.6415C45.353 26.4605 45.0436 25.8659 44.9407 25.6461L41.4355 17.2196H40.4175L37.1965 25.2586C37.0544 25.6205 36.47 26.6674 36.3588 26.8354C36.2555 26.9905 36.1015 27.2488 36.4879 27.2488H37.7506L38.759 24.7154H42.4412L43.4977 27.2488H45.521C45.8165 27.2488 45.8561 26.8762 45.5722 26.6415ZM39.272 23.4773L40.5606 20.1942L41.9262 23.4773H39.272ZM3.09077 18.5557V25.4831C3.09077 28.4813 1.08069 29.5155 0.77124 29.903H3.03931C4.31064 29.0447 5.10086 27.1943 5.10086 26.0515V17.211H3.09077C2.85869 17.211 2.73019 17.3664 2.83312 17.6247C2.93605 17.8837 3.06521 18.1164 3.09077 18.5557ZM23.2932 22.4404H25.3036V26.7315C24.7106 27.1193 23.8859 27.4812 22.1079 27.4812C20.3296 27.4812 16.7988 26.6282 16.7988 22.1565C16.7988 17.6844 21.2058 17.0642 22.1853 17.0642C23.1647 17.0642 24.4533 17.2966 25.1489 17.5812V19.0547C24.6077 18.8738 23.8089 18.2794 22.3141 18.2794C20.6131 18.2794 18.938 19.6749 18.9121 22.3119C18.8862 24.9485 20.7419 27.0419 23.2932 26.1371V23.5009C23.2803 23.2167 23.2418 23.0098 23.1129 22.8288C23.0166 22.6937 22.9582 22.4404 23.2932 22.4404ZM35.3225 24.1978V18.6018C35.3355 18.3176 35.5676 17.7877 35.6967 17.6067C35.7927 17.4719 35.8511 17.2189 35.5158 17.2189H33.9958C33.6604 17.2189 33.7195 17.4719 33.8155 17.6067C33.944 17.7877 34.176 18.3176 34.189 18.6018V23.5002C34.189 24.9737 33.1318 26.2919 31.6118 26.2919C30.0911 26.2919 29.4467 24.7148 29.4467 23.888V17.2189H27.4366C27.1016 17.2189 27.16 17.4719 27.256 17.6067C27.3851 17.7877 27.4236 17.9942 27.4366 18.2784V24.0945C27.4366 25.8523 29.3693 27.455 31.6115 27.455C33.854 27.455 35.3225 25.4904 35.3225 24.1978ZM49.5927 25.6331C49.5927 25.8267 49.7477 26.5894 49.8507 26.8351C49.9539 27.0804 49.8118 27.2484 49.5927 27.2484H47.5829V18.2788C47.57 17.9945 47.5311 17.7877 47.402 17.6071C47.3067 17.4723 47.2476 17.2193 47.5829 17.2193H50.5207C51.2684 17.2193 53.8197 17.1419 53.8456 20.0109C53.8715 20.7862 53.8456 21.4845 52.6603 22.2857C52.4282 22.4407 52.299 22.6476 52.48 22.9577C52.6603 23.2678 54.0647 25.762 54.0647 25.762C54.2962 26.1239 54.6879 26.6644 54.8247 26.77C54.9921 26.8995 55.0439 27.2481 54.7607 27.2481H52.6862L50.2245 22.7764C50.0701 22.4922 50.0701 22.2332 50.4307 22.1303C50.8853 21.9998 51.8614 22.0529 51.8614 19.9588C51.8614 18.0072 50.521 18.2399 50.0834 18.2399C49.6451 18.2399 49.593 18.563 49.593 19.0281L49.5927 25.6331ZM6.06705 28.81V29.4817H62.6615V28.81H6.06705Z" fill="black"></path><path fill-rule="evenodd" clip-rule="evenodd" d="M61.7164 15.5082H59.9513C58.9702 15.5328 58.4824 15.0042 58.2673 14.8302C52.1042 10.39 40.6095 5.34954 30.2496 1.86028C28.9092 1.44658 26.9247 1.16236 25.6879 1.16236C24.4511 1.16236 23.8581 1.0591 22.5695 1.11057C21.3334 1.16004 20.0438 1.36888 19.3223 1.57574C18.6008 1.78259 16.9772 2.19596 16.8998 3.17842C16.2813 3.64359 15.6501 4.2771 15.3921 4.53541C15.1341 4.79373 15.0441 5.29775 15.5594 5.86651C16.0747 6.43493 16.6936 7.0037 17.1057 6.74538C17.5177 6.48706 17.4148 6.17662 17.5695 5.86651C17.7243 5.55639 18.2399 5.09123 18.7552 5.65965C19.2705 6.22808 18.9484 6.47378 18.6519 6.74538C18.3773 6.99672 17.8272 7.4692 18.1881 7.93437C18.5487 8.39953 18.9614 8.55492 19.5282 8.14122C19.9442 7.83774 21.0568 7.20026 21.7016 6.84134C21.8603 6.74505 22.0539 6.51263 22.7594 6.79784C23.5188 7.08903 24.6922 7.6113 25.1849 7.88257L24.1154 8.37364C23.5483 8.73554 23.0586 9.75686 23.0071 10.1184C22.9557 10.6869 23.1618 11.5017 23.9348 12.1733H25.6099L26.6149 10.726L26.5376 10.571C27.8261 10.4156 31.3313 11.4758 32.9808 10.8293C34.1144 11.2945 36.1248 11.5531 39.8359 11.1912C40.5059 11.1394 41.4206 10.9973 41.9874 11.7341C42.5737 12.4951 45.4534 15.5338 46.3814 15.8439C47.3094 16.1543 51.1752 16.1543 52.1802 16.335C53.0485 16.4913 53.3915 16.335 54.1133 17.162L55.6592 18.532C55.8395 18.7388 56.381 19.1396 56.9996 19.1396H58.0691C58.6876 19.0878 59.0223 18.6485 59.1774 18.1315H61.8057C62.6304 18.1315 62.8887 17.3948 62.8887 16.7228C62.8887 16.0507 62.4379 15.5082 61.7164 15.5082ZM61.7293 17.512H59.2424C59.1003 16.413 58.2885 16.2589 57.8247 16.2324C57.3735 16.2068 57.0258 16.0258 56.8196 15.8963C56.8196 15.8963 55.1446 14.3969 54.6804 13.9059C54.2169 13.4148 53.9074 13.2597 53.4692 13.2597H51.9492C51.6397 13.2597 51.2785 13.2856 50.7632 12.5877C50.2482 11.8895 48.9337 10.7782 48.5984 10.5457C48.2637 10.313 48.186 10.5716 48.3922 10.7526C48.5725 10.9336 49.4231 11.4764 49.9387 12.3294C50.4544 13.1824 50.892 13.622 51.2532 13.8029C51.562 14.0098 52.5159 13.9835 53.0827 13.9835C53.6501 13.9835 53.8563 14.0353 54.3202 14.5005C54.784 14.9657 55.8408 15.8963 56.1244 16.2068C56.4079 16.5169 56.8973 16.8011 57.5933 16.8011C58.2892 16.8011 58.6242 17.2404 58.5983 17.6541C58.5744 18.0419 58.3662 18.4812 58.0568 18.4812H56.9485C56.7682 18.4812 56.3558 18.2229 56.2525 18.1193C55.892 17.8609 54.9899 17.0853 54.4745 16.5425C53.9592 15.9996 53.4439 15.8442 52.7483 15.7413C52.0524 15.6377 49.1655 15.5085 48.5217 15.483C47.8772 15.4571 46.8977 15.4571 46.2021 15.0175C45.5178 14.5852 42.8002 11.6056 42.3363 11.0627C41.7948 10.4422 40.9837 10.5198 40.4939 10.5069C35.6742 11.0368 33.9603 10.5457 33.445 10.2353L33.9477 9.36938C35.4554 9.71834 37.517 9.38233 37.8009 9.30497C38.0844 9.22727 38.0323 8.94306 37.7491 8.99452C37.1053 9.07222 34.296 8.73621 34.0118 8.68441C33.9866 7.96059 32.3626 5.78915 32.1564 5.37577C31.9502 4.96207 32.1312 4.70375 32.3367 4.5228C32.5429 4.34184 32.5429 4.10942 32.3626 4.10942C31.6156 4.18679 31.4349 4.78145 31.5897 5.50526C31.7441 6.22908 33.3418 8.3225 33.2388 8.8139C33.1356 9.30497 32.6462 9.98994 32.3626 10.2742C30.9711 10.6102 27.8786 9.78309 26.1003 9.83455C25.4173 9.85447 25.5332 10.4422 25.7782 10.649L25.2111 11.4761H24.3993C23.961 11.3466 23.8066 10.6746 23.7289 10.3386C23.7489 10.1204 23.9092 9.48559 24.4504 9.02042C25.5458 8.0788 29.9143 8.50346 30.3007 8.50346C30.6875 8.50346 30.5843 8.3225 30.3525 8.24481C29.9402 8.14155 28.6901 7.80554 27.9556 7.77964C27.7883 7.28857 27.4788 6.93961 27.3756 6.46116C27.2876 6.05344 27.4015 5.54345 27.5429 5.23333C27.7362 4.63867 27.3238 4.72932 27.1823 4.89732C26.9888 5.18154 26.4994 5.81504 26.4735 6.28021C26.4476 6.74538 26.9244 7.57279 27.0535 7.77964C26.8214 7.77964 26.4091 7.80554 26.2288 7.80554C24.9787 6.74571 22.7365 6.03484 22.2986 5.87979C22.3756 5.67294 22.4918 5.45314 22.5692 5.19482C22.6465 4.9365 22.8013 4.98797 22.9816 5.03976C23.2392 5.16892 24.4504 5.60852 24.8372 5.76358C25.2237 5.91864 25.5846 5.84094 25.7649 5.68588C25.9452 5.53083 26.5379 5.01386 26.7955 4.65196C27.0532 4.29005 26.6408 4.26415 26.4861 4.4451C25.9963 4.89732 25.2749 5.14302 24.8884 5.06566C24.5016 4.98797 23.2648 4.36774 22.9557 4.16089C22.2597 3.85078 22.0021 4.34184 21.9247 4.62606C21.4735 5.93358 20.7394 6.54948 20.2108 6.93961C20.0561 7.06877 19.3585 7.47982 19.154 7.61164C18.9737 7.72785 18.8575 7.53394 18.9348 7.41773C19.0895 7.30119 19.6563 6.71948 19.6952 6.51296C19.824 5.76358 19.6178 5.51788 19.3087 5.18187C18.9992 4.84586 18.5998 4.72965 18.136 4.72965C17.6721 4.72965 17.2339 5.1563 17.0791 5.31103C16.9244 5.46608 17.118 5.7762 16.86 5.95748C16.6023 6.1381 16.3058 5.65999 16.1514 5.45314C16.4865 5.06566 16.4606 4.88437 16.3832 4.52247C16.4941 4.43913 16.6691 4.2346 16.8856 4.04435C17.0662 4.14794 17.4268 4.19974 17.6588 4.14794C18.9089 4.04435 19.1277 4.18679 19.4113 4.31595C19.6948 4.4451 19.7848 4.26415 19.6815 4.0832C19.5434 3.84048 19.4368 3.74718 19.1792 3.48854L19.6815 3.33348C20.2486 3.33348 20.8157 3.54033 21.0993 3.56623C21.3828 3.59213 21.5631 3.59213 21.6664 3.38528C21.8467 2.84241 22.1817 2.73915 22.4138 2.66146C22.6459 2.58377 22.8262 2.37725 22.62 2.32545H22.1043C21.6664 2.35135 21.6405 2.5064 21.5117 2.66146C21.3825 2.81652 21.2281 2.99747 20.8931 2.94567C20.5581 2.89388 19.8492 2.77767 19.4368 2.80357C19.1144 2.82382 18.6509 3.15253 17.7488 3.12663C18.1097 2.22186 21.4602 1.86028 22.1043 1.83405C26.3825 1.6531 27.2846 1.85995 29.2432 2.27365C31.2019 2.68736 34.1476 3.64891 39.7914 5.89772C45.1556 8.0353 55.5659 13.2823 57.9718 15.4239C58.1079 15.5597 58.8938 16.1155 59.783 16.1155H61.6383C62.1025 16.1155 62.231 16.5421 62.231 16.749C62.231 16.9558 62.1158 17.512 61.7293 17.512Z" fill="black"></path></g><defs><clipPath id="clip0_170_5354"><rect width="63" height="30" fill="white" transform="translate(0.244385 0.5)"></rect></clipPath></defs></svg>