<svg xmlns="http://www.w3.org/2000/svg" width="160" height="31" viewBox="0 0 160 31" fill="none"><path fill-rule="evenodd" clip-rule="evenodd" d="M151.184 14.7454H139.796C139.937 13.3185 140.944 11.8916 142.763 11.8916H156.192V9.14988H142.147C136.552 9.14988 134.256 13.4031 134.256 17.4871H149.925C150.456 17.4871 151.715 17.5991 151.715 18.8857C151.715 20.1731 150.624 20.2852 148.75 20.3408H132.409V9.14988H127.597V20.3408H118.421C115.65 20.3408 115.344 18.2989 115.344 17.2082V9.14988H106.586L99.4508 13.9062L93.0161 9.14988H74.2442C68.6488 9.14988 65.2911 13.0387 64.8155 16.4237H68.6853C67.138 17.4671 66.0424 18.8807 65.4472 20.3358L54.5202 20.3408C51.7503 20.3408 51.4423 18.2989 51.4423 17.2082V9.14988H46.6305V16.7881C46.6305 22.0483 50.3234 23.0834 52.1139 23.0834H90.5841L97.7741 18.2706L104.293 23.0834H111.876L101.776 15.641L110.085 10.0729V17.4314C110.085 22.1869 114.73 23.0834 116.016 23.0834H151.129C152.864 23.0834 157.648 22.8592 157.648 19.0542C157.648 15.2492 154.121 14.7454 151.184 14.7454ZM89.8013 20.3408H71.6984C71.8379 18.9139 73.405 17.4871 75.2237 17.4871H85.9116V14.7454H71.3066C71.4461 13.3185 73.0132 11.8916 74.8319 11.8916H87.0305V10.297L95.4806 16.564L89.8013 20.3408ZM21.4372 29.2101C27.7556 29.2101 33.3594 27.0046 36.8332 23.6055L33.703 23.6204C30.7438 26.1089 26.4175 27.6753 21.5143 27.6753C12.3679 27.6753 5.22764 22.2251 5.22764 15.5007C5.22764 7.74541 12.3679 3.32615 21.5143 3.32615C22.0962 3.32781 22.5611 3.59592 22.2124 4.1006C20.3124 6.38825 14.9012 13.7509 13.9143 15.3463C11.9669 18.4914 12.0134 22.3645 16.7838 22.6359H36.8432C37.8683 22.6359 38.1281 22.1553 38.4983 21.654C39.8205 19.8757 40.5303 17.7166 40.5212 15.5007C40.5179 9.7218 36.4514 5.39052 30.4674 3.25975L29.5411 4.64346C34.5132 6.47791 37.8011 10.185 37.8011 15.5007C37.8011 16.4237 37.6658 17.3227 37.4101 18.1868C37.1876 18.9372 36.7535 19.5722 35.9309 19.5722H19.919C17.8679 19.5722 18.6606 17.4563 19.4201 16.4312C20.5216 14.4565 26.5553 6.23303 28.0079 4.70073C28.3782 4.13878 29.4157 2.97503 27.9855 2.52928C25.9436 2.04453 23.7373 1.79053 21.4363 1.79053C10.897 1.79053 2.35811 7.20255 2.3523 15.5007C2.34732 23.8761 10.897 29.2101 21.4372 29.2101Z" fill="white"></path></svg>