<svg xmlns="http://www.w3.org/2000/svg" width="28" height="29" viewBox="0 0 28 29" fill="none"><path fill-rule="evenodd" clip-rule="evenodd" d="M2.15993 21.6058L14.004 16.7036L25.8985 21.5299C23.4284 25.7353 18.9188 28.3197 14.0544 28.3323C9.17763 28.3575 4.65544 25.7989 2.15993 21.6058ZM13.8398 0.73877L11.9524 13.2414L1.98329 21.2978C-0.410949 17.0542 -0.385549 11.8606 2.05916 7.64242C4.49125 3.4242 8.97543 0.80202 13.8398 0.73877ZM26.0756 21.2102L15.9926 13.4072L14.1937 0.739766C16.5764 0.776206 18.909 1.42887 20.9646 2.63425C23.0202 3.83962 24.7287 5.55664 25.9239 7.61818C28.3684 11.811 28.4192 16.9667 26.0756 21.2102Z" fill="black"></path></svg>