<svg xmlns="http://www.w3.org/2000/svg" width="38" height="38" viewBox="0 0 38 38" fill="none"><path d="M26.3034 25.5612H24.0257L22.8425 25.0347V23.598C24.4992 22.6853 25.7988 21.2018 26.4751 19.4144H27.4901C29.9072 19.4144 31.8737 17.4479 31.8737 15.0309C31.8737 13.4701 31.0531 12.0981 29.8214 11.3213V10.8214C29.8215 4.85443 24.967 0 19 0C13.033 0 8.17854 4.85442 8.17854 10.8215V11.321C6.9465 12.0978 6.12572 13.4699 6.12572 15.0309C6.12572 17.4479 8.09222 19.4144 10.5093 19.4144H11.5248C12.2011 21.2018 13.5008 22.6853 15.1574 23.598V25.0287L13.9609 25.5612H11.6965C5.24704 25.5612 0 30.8084 0 37.2578C0 37.6676 0.332277 38 0.742188 38H15.6602C16.0701 38 16.4023 37.6676 16.4023 37.2578C16.4023 36.848 16.0701 36.5156 15.6602 36.5156H1.51102C1.88107 31.3865 6.0561 27.2953 11.22 27.0569C11.2181 27.0631 11.2154 27.0691 11.2136 27.0753C11.1534 27.2868 11.1902 27.5141 11.3138 27.6959L14.8247 32.8574C14.9491 33.0403 15.1486 33.1581 15.3687 33.1789C15.392 33.181 15.4153 33.1822 15.4385 33.1822C15.6344 33.1822 15.8234 33.1046 15.9633 32.9648L18.9934 29.9346L22.0234 32.9648C22.1633 33.1046 22.3524 33.1822 22.5482 33.1822C22.5713 33.1822 22.5946 33.181 22.6179 33.1789C22.8382 33.1581 23.0376 33.0403 23.162 32.8574L26.673 27.6959C26.7966 27.5142 26.8333 27.2867 26.7732 27.0753C26.7713 27.0688 26.7686 27.0628 26.7666 27.0564C31.9367 27.2884 36.1186 31.3822 36.489 36.5157H22.3398C21.93 36.5157 21.5977 36.8481 21.5977 37.2579C21.5977 37.6677 21.93 38.0001 22.3398 38.0001H37.2578C37.6676 38.0001 38 37.6677 38 37.2579C38 30.8084 32.753 25.5612 26.3034 25.5612ZM25.4895 11.5497C23.9646 11.3403 22.5337 10.7328 21.3179 9.7709C21.0514 9.55997 20.6755 9.55715 20.4057 9.76414C18.8113 10.9874 16.9041 11.634 14.8902 11.634C14.082 11.634 13.285 11.5263 12.5131 11.3171V10.9398C12.5131 7.36302 15.423 4.45312 18.9997 4.45312C22.5765 4.45312 25.4864 7.36302 25.4864 10.9398C25.4865 10.9398 25.4879 11.5298 25.4895 11.5497ZM27.4902 17.9301H26.9887V12.1316H27.4902C29.0889 12.1316 30.3894 13.4322 30.3894 15.0309C30.3894 16.6295 29.0889 17.9301 27.4902 17.9301ZM19 1.48438C24.1179 1.48438 28.2865 5.62348 28.3359 10.73C28.0621 10.6762 27.7795 10.6473 27.4901 10.6473H26.9649C26.8103 6.38704 23.297 2.96875 18.9997 2.96875C14.7024 2.96875 11.1891 6.38704 11.0345 10.6473H10.5094C10.2202 10.6473 9.93782 10.6761 9.6641 10.7299C9.71353 5.62348 13.8822 1.48438 19 1.48438ZM11.0108 17.9301H10.5094C8.9107 17.9301 7.61017 16.6295 7.61017 15.0309C7.61017 13.4322 8.9107 12.1316 10.5094 12.1316H11.0109L11.0108 17.9301ZM12.4952 16.5957V12.8447C13.2771 13.0264 14.0791 13.1184 14.8902 13.1184C17.0439 13.1184 19.0931 12.4827 20.8514 11.2744C22.2333 12.2485 23.8233 12.8532 25.5042 13.0472V16.6356C25.5 17.3313 25.386 18.0015 25.1787 18.6296H21.6345C21.3278 17.7624 20.5001 17.1393 19.5293 17.1393H18.5358C17.3048 17.1393 16.3033 18.1408 16.3033 19.3718C16.3033 20.6028 17.3048 21.6043 18.5358 21.6043H19.5293C20.5002 21.6043 21.3279 20.9811 21.6345 20.1139H24.4687C23.3098 21.9094 21.2914 23.1004 19 23.1004C15.4132 23.1004 12.4952 20.1825 12.4952 16.5957ZM20.2775 19.3718C20.2775 19.7843 19.942 20.1199 19.5294 20.1199H18.5358C18.1233 20.1199 17.7878 19.7843 17.7878 19.3718C17.7878 18.9592 18.1233 18.6236 18.5358 18.6236H19.5294C19.9419 18.6236 20.2775 18.9592 20.2775 19.3718ZM19 24.5848C19.8206 24.5848 20.6125 24.4603 21.3582 24.2295V25.4705L18.9934 27.8353L16.6418 25.4837V24.2295C17.3875 24.4603 18.1794 24.5848 19 24.5848ZM15.5477 31.2811L13.0408 27.5955L15.5413 26.4827L17.9437 28.885L15.5477 31.2811ZM22.439 31.2811L20.043 28.885L22.4454 26.4827L24.946 27.5955L22.439 31.2811Z" fill="black"></path></svg>