<svg xmlns="http://www.w3.org/2000/svg" width="56" height="37" viewBox="0 0 56 37" fill="none"><g clip-path="url(#clip0_170_5379)"><path fill-rule="evenodd" clip-rule="evenodd" d="M34.6706 19.1504C34.6706 18.8766 34.6609 18.3389 34.6609 18.3389C42.7401 17.0709 48.5788 13.5915 48.7401 9.50088C50.7293 11.9818 51.8579 14.8229 51.8579 17.8501C51.8579 26.758 42.0796 34.0568 29.6509 34.7073C32.5302 32.8924 34.6706 26.6122 34.6706 19.1504ZM55.5939 18.5001C55.5939 8.53279 43.1902 0.451416 27.8884 0.451416C12.5871 0.451416 0.182987 8.53279 0.182987 18.5001C0.182987 28.4673 12.5873 36.5489 27.8884 36.5489C43.1902 36.5489 55.5939 28.4671 55.5939 18.5001ZM21.4894 13.7844C15.741 12.8852 11.7174 10.8216 11.7174 8.42036C11.7174 5.19748 18.9582 2.58786 27.8884 2.58786C36.8193 2.58786 44.0595 5.1977 44.0595 8.42036C44.0595 10.8216 40.0365 12.8852 34.2874 13.7844C33.3549 7.53724 30.8417 3.05621 27.8884 3.05621C24.9345 3.05621 22.422 7.53702 21.4894 13.7844ZM26.1258 34.707C13.6977 34.0568 3.91813 26.7577 3.91813 17.8499C3.91813 14.8229 5.04806 11.9818 7.03717 9.50066C7.19878 13.5913 13.0359 17.0706 21.1159 18.3387C21.1159 18.3387 21.1059 18.8764 21.1059 19.1502C21.1059 26.612 23.2478 32.8922 26.1258 34.707ZM24.0485 14.0898C24.662 10.083 26.1498 7.25443 27.8884 7.25443C29.627 7.25443 31.1146 10.083 31.7288 14.0898C29.1339 14.3029 26.5768 14.3064 24.0485 14.0898ZM32.0284 18.6651C31.9268 24.4674 30.1132 29.0955 27.8884 29.0955C25.6646 29.0955 23.8505 24.4676 23.7477 18.6651C26.5901 18.912 29.3649 18.9118 32.0284 18.6651Z" fill="black"></path></g><defs><clipPath id="clip0_170_5379"><rect width="55.619" height="36.5" fill="white" transform="matrix(-1 0 0 1 55.7181 0.25)"></rect></clipPath></defs></svg>