<svg xmlns="http://www.w3.org/2000/svg" width="37" height="37" viewBox="0 0 37 37" fill="none"><g clip-path="url(#clip0_307_10446)"><path d="M31.975 33.1255H4.51319C3.04956 33.1255 1.86304 31.939 1.86304 30.4753V7.60831C1.86304 6.14468 3.04956 4.95816 4.51319 4.95816H31.975C33.4386 4.95816 34.6251 6.14468 34.6251 7.60831V30.4753C34.6251 31.939 33.4386 33.1255 31.975 33.1255Z" fill="url(#paint0_linear_307_10446)"></path><path d="M31.3627 32.4973H5.12577C3.7274 32.4973 2.59375 31.3637 2.59375 29.9653V8.1182C2.59375 6.71983 3.72733 5.58618 5.12577 5.58618H31.3627C32.761 5.58618 33.8947 6.71976 33.8947 8.1182V29.9654C33.8948 31.3637 32.7611 32.4973 31.3627 32.4973Z" fill="url(#paint1_linear_307_10446)"></path><path d="M32.8496 12.3548L26.2441 0.913846C25.8041 0.151729 24.8295 -0.109412 24.0674 0.330674L3.24097 12.3548H32.8496Z" fill="url(#paint2_linear_307_10446)"></path><path d="M1.86304 21.5628H34.6251V12.8854C34.6251 11.7901 33.7373 10.9023 32.6421 10.9023H3.84613C2.75087 10.9023 1.86304 11.7901 1.86304 12.8854V21.5628Z" fill="url(#paint3_linear_307_10446)"></path><path d="M1.86304 18.2993V30.4753C1.86304 31.939 3.04956 33.1256 4.51326 33.1256H31.975C33.4386 33.1256 34.6251 31.939 34.6251 30.4754V18.2993C34.6251 17.3953 33.8923 16.6624 32.9883 16.6624H3.49991C2.5959 16.6624 1.86304 17.3952 1.86304 18.2993Z" fill="url(#paint4_linear_307_10446)"></path><path d="M29.6826 12.0191V33.1256H31.9752C33.4388 33.1256 34.6253 31.9391 34.6253 30.4755V16.9618L29.6826 12.0191Z" fill="url(#paint5_linear_307_10446)"></path><path d="M27.4478 36.0969L4.44948 33.4259C2.97517 33.2546 1.86304 32.0059 1.86304 30.5217V7.41071C1.86304 7.90739 2.2352 8.32519 2.72844 8.38249L28.1223 11.3318C29.5966 11.5031 30.7087 12.7518 30.7087 14.236V33.1928C30.7087 34.9411 29.1844 36.2987 27.4478 36.0969Z" fill="url(#paint6_linear_307_10446)"></path><path d="M27.4478 31.4806L4.44948 28.8096C2.97517 28.6383 1.86304 27.3897 1.86304 25.9054V30.5217C1.86304 32.0059 2.97517 33.2547 4.44948 33.4259L27.4478 36.0969C29.1844 36.2987 30.7088 34.9411 30.7088 33.1928V28.5765C30.7087 30.3248 29.1844 31.6823 27.4478 31.4806Z" fill="url(#paint7_linear_307_10446)"></path><path d="M3.92504 11.0129C3.90578 11.0129 3.88623 11.0118 3.86661 11.0097L2.81417 10.8939C2.5235 10.8619 2.31376 10.6005 2.34575 10.3099C2.37775 10.0193 2.63938 9.80978 2.92977 9.84149L3.98221 9.95723C4.27288 9.98922 4.48262 10.2506 4.45063 10.5412C4.42082 10.8123 4.19146 11.0129 3.92504 11.0129Z" fill="url(#paint8_linear_307_10446)"></path><path d="M25.5508 34.3528C25.5286 34.3528 25.5059 34.3513 25.4833 34.3485L23.4378 34.0884C23.1479 34.0515 22.9425 33.7865 22.9795 33.4964C23.0164 33.2064 23.2814 33.0023 23.5715 33.038L25.6169 33.2981C25.9069 33.3349 26.1123 33.6 26.0753 33.8901C26.0412 34.1574 25.8134 34.3528 25.5508 34.3528ZM27.5641 34.0907C27.3655 34.0907 27.1751 33.9784 27.0849 33.7868C26.9602 33.5223 27.0736 33.2068 27.3381 33.0823C27.8752 32.8292 28.2792 32.4094 28.4465 31.9304C28.5429 31.6545 28.8449 31.509 29.1208 31.6052C29.3968 31.7016 29.5425 32.0035 29.4461 32.2795C29.1819 33.036 28.5936 33.6612 27.7894 34.0401C27.7165 34.0744 27.6398 34.0907 27.5641 34.0907ZM21.4599 33.8326C21.4377 33.8326 21.4151 33.8311 21.3924 33.8283L19.347 33.5682C19.057 33.5314 18.8516 33.2663 18.8886 32.9762C18.9255 32.6862 19.1905 32.482 19.4806 32.5178L21.5261 32.7779C21.8161 32.8148 22.0214 33.0798 21.9845 33.3699C21.9504 33.6372 21.7224 33.8326 21.4599 33.8326ZM17.3691 33.3124C17.3469 33.3124 17.3243 33.3109 17.3016 33.3081L15.2561 33.048C14.9661 33.0111 14.7608 32.7461 14.7977 32.4559C14.8347 32.166 15.0997 31.9608 15.3898 31.9976L17.4352 32.2577C17.7252 32.2945 17.9306 32.5596 17.8936 32.8497C17.8595 33.117 17.6316 33.3124 17.3691 33.3124ZM13.2781 32.7921C13.2559 32.7921 13.2333 32.7906 13.2106 32.7878L11.1651 32.5277C10.875 32.4908 10.6697 32.2257 10.7067 31.9356C10.7436 31.6456 11.0087 31.4414 11.2987 31.4773L13.3442 31.7374C13.6343 31.7743 13.8396 32.0393 13.8026 32.3295C13.7687 32.5969 13.5407 32.7921 13.2781 32.7921ZM9.18723 32.2719C9.16501 32.2719 9.14244 32.2704 9.11973 32.2676L7.0742 32.0074C6.78416 31.9705 6.57885 31.7055 6.61583 31.4154C6.65275 31.1254 6.9179 30.9211 7.20787 30.957L9.2534 31.2172C9.54344 31.2541 9.74875 31.5191 9.71176 31.8092C9.67773 32.0766 9.44985 32.2719 9.18723 32.2719ZM29.0651 30.5861C28.7726 30.5861 28.5357 30.3492 28.5357 30.0567V27.9948C28.5357 27.7024 28.7726 27.4654 29.0651 27.4654C29.3575 27.4654 29.5944 27.7024 29.5944 27.9948V30.0567C29.5945 30.3492 29.3576 30.5861 29.0651 30.5861ZM29.0651 26.4624C28.7726 26.4624 28.5357 26.2254 28.5357 25.933V23.8711C28.5357 23.5786 28.7726 23.3417 29.0651 23.3417C29.3575 23.3417 29.5944 23.5786 29.5944 23.8711V25.933C29.5945 26.2253 29.3576 26.4624 29.0651 26.4624ZM29.0651 22.3385C28.7726 22.3385 28.5357 22.1016 28.5357 21.8092V19.7472C28.5357 19.4548 28.7726 19.2179 29.0651 19.2179C29.3575 19.2179 29.5944 19.4548 29.5944 19.7472V21.8092C29.5945 22.1015 29.3576 22.3385 29.0651 22.3385ZM29.0651 18.2147C28.7726 18.2147 28.5357 17.9778 28.5357 17.6853V15.6234C28.5357 15.331 28.7726 15.094 29.0651 15.094C29.3575 15.094 29.5944 15.331 29.5944 15.6234V17.6853C29.5945 17.9777 29.3576 18.2147 29.0651 18.2147ZM28.3247 14.3022C28.194 14.3022 28.063 14.254 27.9607 14.157C27.5683 13.7852 27.0237 13.5484 26.4271 13.4899L26.4131 13.4884C26.1223 13.4572 25.912 13.1961 25.9434 12.9054C25.9747 12.6147 26.2357 12.4043 26.5264 12.4357L26.5354 12.4367C27.36 12.5175 28.1265 12.8557 28.689 13.3885C28.9012 13.5896 28.9102 13.9247 28.7091 14.1369C28.6049 14.2467 28.465 14.3022 28.3247 14.3022ZM24.4207 13.2662C24.4014 13.2662 24.3819 13.2651 24.3623 13.263L22.3127 13.0376C22.0221 13.0056 21.8123 12.7442 21.8443 12.4536C21.8763 12.163 22.138 11.9538 22.4283 11.9852L24.4779 12.2105C24.7685 12.2425 24.9783 12.5039 24.9463 12.7945C24.9166 13.0655 24.6871 13.2662 24.4207 13.2662ZM20.3217 12.8155C20.3024 12.8155 20.2829 12.8144 20.2633 12.8123L18.2137 12.5869C17.9231 12.5549 17.7133 12.2935 17.7452 12.0029C17.7772 11.7122 18.0392 11.5028 18.3293 11.5345L20.3789 11.7598C20.6695 11.7918 20.8793 12.0532 20.8473 12.3438C20.8175 12.6149 20.5881 12.8155 20.3217 12.8155ZM16.2225 12.3649C16.2032 12.3649 16.1837 12.3637 16.1641 12.3616L14.1145 12.1363C13.8239 12.1043 13.6141 11.8429 13.6461 11.5523C13.678 11.2616 13.9395 11.0523 14.2301 11.0838L16.2797 11.3092C16.5703 11.3412 16.7801 11.6026 16.7481 11.8932C16.7183 12.1642 16.489 12.3649 16.2225 12.3649ZM12.1233 11.9142C12.1041 11.9142 12.0845 11.9131 12.0649 11.911L10.0154 11.6856C9.7247 11.6536 9.51496 11.3922 9.54695 11.1016C9.57887 10.8111 9.84008 10.6018 10.131 10.6332L12.1805 10.8585C12.4711 10.8905 12.6809 11.152 12.6489 11.4426C12.6193 11.7135 12.3898 11.9142 12.1233 11.9142ZM8.02419 11.4635C8.00493 11.4635 7.98538 11.4624 7.96576 11.4603L5.91622 11.2349C5.62562 11.2029 5.41581 10.9415 5.4478 10.6509C5.4798 10.3604 5.74108 10.1511 6.03182 10.1825L8.08136 10.4078C8.37203 10.4398 8.58177 10.7013 8.54978 10.9919C8.52004 11.2628 8.29061 11.4635 8.02419 11.4635Z" fill="url(#paint9_linear_307_10446)"></path><path d="M5.09131 31.7509C5.06909 31.7509 5.04659 31.7495 5.02388 31.7467L3.97349 31.6131C3.68345 31.5763 3.47806 31.3112 3.51505 31.0212C3.55189 30.7311 3.81697 30.526 4.10701 30.5627L5.15741 30.6963C5.44745 30.7331 5.65283 30.9982 5.61584 31.2882C5.58181 31.5556 5.35386 31.7509 5.09131 31.7509Z" fill="url(#paint10_linear_307_10446)"></path><path d="M24.5418 4.05914L21.1536 5.90287C20.7123 6.14299 20.1598 5.97993 19.9196 5.53858C19.6795 5.09723 19.8426 4.54478 20.2839 4.3046L23.6722 2.46093C24.1136 2.22082 24.666 2.38387 24.9062 2.82522C25.1463 3.2665 24.9833 3.81902 24.5418 4.05914Z" fill="#61DB99"></path><path d="M30.7087 25.698L27.3463 22.3356C26.8719 21.819 26.1911 21.495 25.4345 21.495C24.0011 21.495 22.8391 22.6571 22.8391 24.0904C22.8391 24.847 23.1631 25.5279 23.6797 26.0022L30.7088 33.0313V25.698H30.7087Z" fill="url(#paint11_linear_307_10446)"></path><path d="M25.4342 26.6854C26.8676 26.6854 28.0296 25.5234 28.0296 24.09C28.0296 22.6566 26.8676 21.4947 25.4342 21.4947C24.0009 21.4947 22.8389 22.6566 22.8389 24.09C22.8389 25.5234 24.0009 26.6854 25.4342 26.6854Z" fill="url(#paint12_linear_307_10446)"></path><path d="M25.4342 25.8812C26.4234 25.8812 27.2253 25.0792 27.2253 24.09C27.2253 23.1008 26.4234 22.2989 25.4342 22.2989C24.445 22.2989 23.6431 23.1008 23.6431 24.09C23.6431 25.0792 24.445 25.8812 25.4342 25.8812Z" fill="url(#paint13_linear_307_10446)"></path><path d="M24.7539 23.7802C24.9586 23.7802 25.1245 23.6143 25.1245 23.4096C25.1245 23.2049 24.9586 23.039 24.7539 23.039C24.5492 23.039 24.3833 23.2049 24.3833 23.4096C24.3833 23.6143 24.5492 23.7802 24.7539 23.7802Z" fill="url(#paint14_linear_307_10446)"></path><path d="M26.1148 23.7802C26.3194 23.7802 26.4854 23.6143 26.4854 23.4096C26.4854 23.2049 26.3194 23.039 26.1148 23.039C25.9101 23.039 25.7441 23.2049 25.7441 23.4096C25.7441 23.6143 25.9101 23.7802 26.1148 23.7802Z" fill="url(#paint15_linear_307_10446)"></path><path d="M24.7539 25.1418C24.9586 25.1418 25.1245 24.9759 25.1245 24.7712C25.1245 24.5665 24.9586 24.4006 24.7539 24.4006C24.5492 24.4006 24.3833 24.5665 24.3833 24.7712C24.3833 24.9759 24.5492 25.1418 24.7539 25.1418Z" fill="url(#paint16_linear_307_10446)"></path><path d="M26.1148 25.1418C26.3194 25.1418 26.4854 24.9759 26.4854 24.7712C26.4854 24.5665 26.3194 24.4006 26.1148 24.4006C25.9101 24.4006 25.7441 24.5665 25.7441 24.7712C25.7441 24.9759 25.9101 25.1418 26.1148 25.1418Z" fill="url(#paint17_linear_307_10446)"></path></g><defs><linearGradient id="paint0_linear_307_10446" x1="18.7795" y1="3.3346" x2="18.5882" y2="8.94314" gradientUnits="userSpaceOnUse"><stop stop-color="#FFB92D"></stop><stop offset="1" stop-color="#F59500"></stop></linearGradient><linearGradient id="paint1_linear_307_10446" x1="19.6968" y1="7.05849" x2="19.1759" y2="11.3551" gradientUnits="userSpaceOnUse"><stop stop-color="#FFB92D"></stop><stop offset="1" stop-color="#F59500"></stop></linearGradient><linearGradient id="paint2_linear_307_10446" x1="18.0449" y1="7.18552" x2="18.0449" y2="10.4586" gradientUnits="userSpaceOnUse"><stop stop-color="#A7F3CE"></stop><stop offset="1" stop-color="#61DB99"></stop></linearGradient><linearGradient id="paint3_linear_307_10446" x1="18.2437" y1="12.8515" x2="18.2437" y2="22.0362" gradientUnits="userSpaceOnUse"><stop stop-color="#FF4C54"></stop><stop offset="1" stop-color="#BE3F45"></stop></linearGradient><linearGradient id="paint4_linear_307_10446" x1="18.2437" y1="19.6716" x2="18.2437" y2="33.8567" gradientUnits="userSpaceOnUse"><stop stop-color="#FF4C54"></stop><stop offset="1" stop-color="#BE3F45"></stop></linearGradient><linearGradient id="paint5_linear_307_10446" x1="32.7615" y1="22.5726" x2="30.3714" y2="22.5726" gradientUnits="userSpaceOnUse"><stop stop-color="#BE3F45" stop-opacity="0"></stop><stop offset="1" stop-color="#BE3F45"></stop></linearGradient><linearGradient id="paint6_linear_307_10446" x1="11.3858" y1="20.119" x2="23.5444" y2="25.7275" gradientUnits="userSpaceOnUse"><stop stop-color="#FFB92D"></stop><stop offset="1" stop-color="#F59500"></stop></linearGradient><linearGradient id="paint7_linear_307_10446" x1="15.8982" y1="32.6066" x2="15.3957" y2="36.4479" gradientUnits="userSpaceOnUse"><stop stop-color="#BE3F45" stop-opacity="0"></stop><stop offset="1" stop-color="#BE3F45"></stop></linearGradient><linearGradient id="paint8_linear_307_10446" x1="3.39809" y1="9.8388" x2="3.39809" y2="34.4037" gradientUnits="userSpaceOnUse"><stop stop-color="#FFF465"></stop><stop offset="1" stop-color="#FFE600"></stop></linearGradient><linearGradient id="paint9_linear_307_10446" x1="17.5192" y1="9.83956" x2="17.5192" y2="34.3529" gradientUnits="userSpaceOnUse"><stop stop-color="#FFF465"></stop><stop offset="1" stop-color="#FFE600"></stop></linearGradient><linearGradient id="paint10_linear_307_10446" x1="4.56531" y1="9.83815" x2="4.56531" y2="34.4024" gradientUnits="userSpaceOnUse"><stop stop-color="#FFF465"></stop><stop offset="1" stop-color="#FFE600"></stop></linearGradient><linearGradient id="paint11_linear_307_10446" x1="28.898" y1="27.5548" x2="21.6247" y2="20.2815" gradientUnits="userSpaceOnUse"><stop stop-color="#BE3F45" stop-opacity="0"></stop><stop offset="1" stop-color="#BE3F45"></stop></linearGradient><linearGradient id="paint12_linear_307_10446" x1="25.4337" y1="22.4612" x2="25.4337" y2="26.2143" gradientUnits="userSpaceOnUse"><stop stop-color="#FF4C54"></stop><stop offset="1" stop-color="#BE3F45"></stop></linearGradient><linearGradient id="paint13_linear_307_10446" x1="25.4336" y1="25.2148" x2="25.4336" y2="22.6249" gradientUnits="userSpaceOnUse"><stop stop-color="#FF4C54"></stop><stop offset="1" stop-color="#BE3F45"></stop></linearGradient><linearGradient id="paint14_linear_307_10446" x1="21.2407" y1="7.89702" x2="21.9818" y2="11.1701" gradientUnits="userSpaceOnUse"><stop stop-color="#A7F3CE"></stop><stop offset="1" stop-color="#61DB99"></stop></linearGradient><linearGradient id="paint15_linear_307_10446" x1="22.6015" y1="7.89717" x2="23.3426" y2="11.1703" gradientUnits="userSpaceOnUse"><stop stop-color="#A7F3CE"></stop><stop offset="1" stop-color="#61DB99"></stop></linearGradient><linearGradient id="paint16_linear_307_10446" x1="20.9474" y1="7.96339" x2="21.6885" y2="11.2365" gradientUnits="userSpaceOnUse"><stop stop-color="#A7F3CE"></stop><stop offset="1" stop-color="#61DB99"></stop></linearGradient><linearGradient id="paint17_linear_307_10446" x1="22.3082" y1="7.96354" x2="23.0493" y2="11.2367" gradientUnits="userSpaceOnUse"><stop stop-color="#A7F3CE"></stop><stop offset="1" stop-color="#61DB99"></stop></linearGradient><clipPath id="clip0_307_10446"><rect width="36" height="36" fill="white" transform="translate(0.244141 0.116852)"></rect></clipPath></defs></svg>